<svg xmlns="http://www.w3.org/2000/svg" viewBox="0 0 584.5 345"><style type="text/css">  
	.st0{fill:#FFFFFF;stroke:#FFFFFF;stroke-miterlimit:10;}
	.st1{fill:none;stroke:#FFFFFF;stroke-miterlimit:10;}
</style><path class="st0" d="M539.8 185.2H44.7v-25.7h495.1V185.2zM45.7 184.2h493.1v-23.7H45.7V184.2z"/><path class="st0" d="M556 160.5H28.5v-7.4h527.5V160.5zM29.5 159.5h525.5v-5.4H29.5V159.5z"/><path class="st0" d="M96.4 342.3H85.8V184.2h10.6V342.3zM86.8 341.3h8.6V185.2H86.8V341.3z"/><path class="st0" d="M498.7 342.3h-10.6V184.2h10.6V342.3zM489.1 341.3h8.6V185.2h-8.6V341.3z"/><rect y="341.3" class="st0" width="584.5" height="1"/><path class="st0" d="M488.2 314.1h-98.3V184.2h98.3V314.1zM390.9 313.1h96.3V185.2h-96.3V313.1z"/><path class="st1" d="M412 154.1h25.3"/><path class="st0" d="M386.9 4.8H204.8c-2.2 0-4 1.8-4 4v103.6c0 2.2 1.8 4 4 4h84.2v30.4h-25c-3.8 0-7 3.1-7 7v0.5h77.7v-0.5c0-3.8-3.1-7-7-7h-24.2v-30.4h83.4c2.2 0 4-1.8 4-4V8.7C390.9 6.6 389.1 4.8 386.9 4.8zM333.7 153.1h-75.6c0.3-3.1 2.8-5.5 6-5.5h63.8C330.8 147.6 333.4 150.1 333.7 153.1zM302.5 116.3v30.3h-12.6v-30.3H302.5zM389.9 112.3c0 1.6-1.3 3-3 3H204.8c-1.6 0-3-1.3-3-3V8.7c0-1.6 1.3-3 3-3h182.2c1.6 0 3 1.3 3 3V112.3z"/><path class="st0" d="M381.7 9.1H210c-2.2 0-4 1.8-4 4v94.9c0 2.2 1.8 4 4 4h171.8c2.2 0 4-1.8 4-4V13.1C385.7 10.9 383.9 9.1 381.7 9.1zM384.7 108c0 1.6-1.3 3-3 3H210c-1.6 0-3-1.3-3-3V13.1c0-1.6 1.3-3 3-3h171.8c1.6 0 3 1.3 3 3V108z"/><rect x="390.4" y="208.9" class="st0" width="97.3" height="1"/><rect x="390.4" y="233.6" class="st0" width="97.3" height="1"/><path class="st0" d="M202.4 134.3c-0.3-0.4-0.8-0.6-1.3-0.6h-2.8l0.9-6.7h-23.9l3 23h-4.4c-0.3 0-0.7 0.2-0.8 0.5 -0.2 0.3-0.1 0.7 0.1 1l1.9 2.7h24.5l1.9-2.7c0.2-0.3 0.2-0.6 0.1-0.9 -0.2-0.3-0.5-0.5-0.8-0.5h-4.4l0.7-5h3.1c0.9 0 1.6-0.6 1.7-1.5l1.2-7.8C202.9 135.2 202.8 134.7 202.4 134.3zM200.5 151l-1.5 2.1h-23.4l-1.5-2.1h4.4 17.7H200.5zM179.3 150L176.4 128h21.7l-2.8 22H179.3zM200.7 143.4c0 0.4-0.3 0.6-0.7 0.6H197l1.2-9.2h3c0.2 0 0.4 0.1 0.5 0.3 0.1 0.2 0.2 0.4 0.2 0.6L200.7 143.4z"/><path class="st0" d="M381 154.1h-16.9v-0.5c0-3.4 2.7-6.1 6.1-6.1h4.7c3.4 0 6.1 2.7 6.1 6.1V154.1zM365.1 153.1H380c-0.2-2.6-2.4-4.6-5.1-4.6h-4.7C367.6 148.5 365.4 150.5 365.1 153.1z"/><rect x="432.4" y="221.7" class="st0" width="13.2" height="1"/><rect x="432.4" y="196.6" class="st0" width="13.2" height="1"/><path class="st0" d="M98.4 154.1H57.5v-0.5c0-11.3 9.2-20.4 20.4-20.4 11.3 0 20.4 9.2 20.4 20.4V154.1zM58.6 153.1h38.8c-0.3-10.5-8.9-18.9-19.4-18.9S58.8 142.6 58.6 153.1z"/><polygon class="st0" points="77.5 133.8 61.3 81.6 135.8 7.7 136.5 8.4 62.4 81.9 78.4 133.5 "/><path class="st0" d="M149.4 42c0 0-0.1 0-0.1 0l-5.8-1.7c-0.2 0-0.3-0.2-0.3-0.4 0-0.2 0-0.3 0.1-0.5l24.3-24.3c0.1-0.1 0.3-0.2 0.5-0.1 0.2 0 0.3 0.2 0.4 0.3l1.7 5.8c0.1 0.2 0 0.4-0.1 0.5L149.7 41.8C149.6 41.9 149.5 42 149.4 42zM144.5 39.5l4.7 1.4 19.7-19.7 -1.4-4.7L144.5 39.5z"/><path class="st0" d="M137.3 23.1c-0.1 0-0.3 0-0.3-0.1l-2-2c-0.1-0.1-0.1-0.2-0.1-0.3 0-0.1 0.1-0.3 0.2-0.3l13.4-13.4c0.2-0.2 0.5-0.2 0.7 0l2 2c0.1 0.1 0.2 0.2 0.2 0.4s0 0.3-0.1 0.4l-13.4 13.4C137.5 23 137.4 23.1 137.3 23.1zM135.9 20.6l1.3 1.3 12.7-12.7 -1.3-1.3L135.9 20.6z"/><path class="st0" d="M139.3 17c0 0-0.1 0-0.1 0 -0.2 0-0.3-0.1-0.4-0.3l-1.1-2.9c-0.1-0.2 0-0.4 0.1-0.5l3.4-3.3c0.1-0.1 0.3-0.2 0.5-0.1l3 1.1c0.2 0.1 0.3 0.2 0.3 0.4 0 0.2 0 0.3-0.1 0.5l-5.2 5.2C139.6 16.9 139.5 17 139.3 17zM138.8 13.6l0.7 1.9 4.1-4.1 -1.9-0.7L138.8 13.6z"/><path class="st0" d="M143.6 40.3c0 0-0.1 0-0.1 0 -0.2 0-0.3-0.2-0.4-0.3l-6.3-17.2c-0.1-0.2 0-0.4 0.1-0.5l13.4-13.4c0.1-0.1 0.3-0.2 0.5-0.1L168 15c0.2 0.1 0.3 0.2 0.3 0.4 0 0.2 0 0.3-0.1 0.5l-24.3 24.3C143.8 40.2 143.7 40.3 143.6 40.3zM137.9 22.7l5.9 16.2 23.2-23.2 -16.2-5.9L137.9 22.7z"/><path class="st0" d="M159.4 39.5c-2.1 0-4.1-0.8-5.7-2.4 -0.1-0.1-0.1-0.2-0.1-0.3 0-0.1 0.1-0.3 0.2-0.3l10.7-10.7c0.1-0.1 0.2-0.1 0.4-0.1l0 0c0.1 0 0.3 0.1 0.4 0.2 3.2 3.2 3.2 8.3 0 11.4l0 0C163.6 38.7 161.5 39.5 159.4 39.5zM154.8 36.7c2.8 2.4 7 2.3 9.7-0.3 2.6-2.6 2.8-6.9 0.3-9.6L154.8 36.7zM164.8 36.7L164.8 36.7 164.8 36.7z"/><polygon class="st0" points="63.1 84.9 62.4 84.2 136.8 8 140.4 11.4 139.7 12.1 136.9 9.4 "/><path class="st0" d="M71.9 134.6c-3.9-17.2-11.3-50-11.6-50.9l1-0.3c0.3 0.8 10.5 45.8 11.6 51L71.9 134.6z"/><path class="st0" d="M66.6 82.9c0 2.6-2.1 4.6-4.6 4.6 -2.5 0-4.6-2.1-4.6-4.6 0-2.5 2.1-4.6 4.6-4.6C64.5 78.2 66.6 80.3 66.6 82.9z"/><path class="st0" d="M62 88c-2.8 0-5.1-2.3-5.1-5.1s2.3-5.1 5.1-5.1c2.8 0 5.1 2.3 5.1 5.1S64.8 88 62 88zM62 78.7c-2.3 0-4.1 1.9-4.1 4.1s1.9 4.1 4.1 4.1c2.3 0 4.1-1.8 4.1-4.1S64.2 78.7 62 78.7z"/><circle class="st0" cx="136.6" cy="8.5" r="2.7"/><path class="st0" d="M136.6 11.7c-1.8 0-3.2-1.4-3.2-3.2 0-1.8 1.5-3.2 3.2-3.2 1.8 0 3.2 1.5 3.2 3.2C139.8 10.3 138.3 11.7 136.6 11.7zM136.6 6.2c-1.2 0-2.2 1-2.2 2.2 0 1.2 1 2.2 2.2 2.2 1.2 0 2.2-1 2.2-2.2C138.8 7.3 137.8 6.2 136.6 6.2z"/><path class="st0" d="M157.7 145.4v-5.2h2.9v-7.5h-37.3v6.6h-4v7.2h2.4v7.7h40.6v-8.7H157.7zM159.6 139.2h-1.9 -31.8v-5.5h33.8V139.2zM124.3 133.6h0.5v5.6h-0.5V133.6zM156.7 140.2v5.2h-35.1v-5.2h1.8H156.7zM120.3 140.2h0.2v5.2h-0.2V140.2zM122.7 146.4h1.1v6.7h-1.1V146.4zM161.3 153.1h-36.5v-6.7h36.5V153.1z"/><path class="st0" d="M486.6 154.1h-26.3l-1.6-28.7h29.5L486.6 154.1zM461.2 153.1h24.4l1.5-26.7h-27.3L461.2 153.1z"/><path class="st1" d="M490.5 126.4h-34.2v-4h34.2V126.4zM457.3 125.4h32.2v-2h-32.2V125.4z"/><rect x="459.2" y="133" class="st0" width="28" height="1"/><path class="st0" d="M489.6 88.3c-4.1 6.9-7.1 16.3-8.9 27.3 0.4-0.5 0.8-1 1.3-1.4 2-11.2 5.3-20.6 9.6-27.2l1.1-1.6 -1.7 0.9c-6.4 3.3-11.9 12.4-15.5 25.2 0.2 0.8 0.3 1.6 0.4 2.4C479 101.5 483.9 92.4 489.6 88.3z"/><path class="st0" d="M464.7 122.4h-1c-2.5-8.2-7-15.9-13.1-22.8 5.5 3.6 10.4 7.8 14.5 12.3 0-0.5 0-1-0.1-1.6 -4.9-5.2-10.7-9.8-17.2-13.7l-3.4-2 2.8 2.8c7.6 7.6 12.8 16.2 15.7 25.6l0.1 0.4h1.6l0.1-0.6C464.6 122.7 464.6 122.6 464.7 122.4z"/><path class="st0" d="M495.7 103.1c-5.3 3.1-9.9 6.9-13.7 11.1 -0.1 0.6-0.2 1.3-0.3 1.9 3.2-3.7 7-7.1 11.3-10 -4.3 5-7.4 10.5-9.2 16.4h-2.9c0 0.2 0 0.4-0.1 0.6l0 0.5h3.7l0.1-0.4c2.1-7 6.1-13.5 11.8-19.2l2.8-2.8L495.7 103.1z"/><path class="st0" d="M480.7 115.6c-1.5 1.8-2.9 3.7-4.1 5.6 0 0.4 0.1 0.8 0.1 1.2h0.4c1-1.7 2.1-3.3 3.4-4.8C480.5 116.9 480.6 116.3 480.7 115.6z"/><path class="st0" d="M480.8 122.4h-1 -2.8 -0.4c0 0.2 0 0.3 0 0.5l0 0.5h4l0.1-0.4C480.8 122.8 480.8 122.6 480.8 122.4z"/><path class="st0" d="M480.4 117.6c0.4-0.5 0.8-1 1.3-1.5 0.1-0.6 0.2-1.3 0.3-1.9 -0.4 0.5-0.8 1-1.2 1.4C480.6 116.3 480.5 116.9 480.4 117.6z"/><path class="st0" d="M454.1 76.2c11 9.1 18.4 22.5 20.8 37.6 0.2-0.8 0.4-1.6 0.6-2.3 -3-15.8-11.5-29.6-23.8-38.4l-3.1-2.2 2.4 2.9c8.3 10.1 13.2 22.9 14 36.6 0.4 0.4 0.7 0.8 1.1 1.2C465.5 98.6 461.3 86.2 454.1 76.2z"/><path class="st0" d="M475.8 113.8c-0.2 0.9-0.4 1.8-0.6 2.6 0.2 2 0.4 3.9 0.5 5.9h0.2c0.2-0.4 0.5-0.8 0.7-1.2C476.5 118.7 476.2 116.3 475.8 113.8z"/><path class="st0" d="M466.1 113.1c-0.3-0.4-0.7-0.8-1-1.1 0 0.9 0.1 1.7 0.1 2.6 0 2.6-0.2 5.3-0.5 7.9h1c0.3-2.6 0.5-5.3 0.5-7.9C466.1 114.1 466.1 113.6 466.1 113.1z"/><path class="st0" d="M475.2 116.5c0.2-0.9 0.4-1.8 0.6-2.6 -0.1-0.8-0.2-1.6-0.4-2.4 -0.2 0.8-0.4 1.5-0.6 2.3C475 114.7 475.1 115.6 475.2 116.5z"/><path class="st0" d="M466.1 113.1c0-0.5 0-1 0-1.5 -0.3-0.4-0.7-0.8-1.1-1.2 0 0.5 0.1 1 0.1 1.6C465.4 112.3 465.8 112.7 466.1 113.1z"/><path class="st0" d="M475.9 122.4h0.8c0-0.4 0-0.8-0.1-1.2C476.3 121.6 476.1 122 475.9 122.4z"/><path class="st0" d="M476.6 122.4h-0.8c0 0.1-0.1 0.2-0.1 0.3l-0.4 0.8h1.4l0-0.5C476.7 122.7 476.6 122.6 476.6 122.4z"/></svg>