<?xml version="1.0" encoding="utf-8"?>
<!-- Generator: Adobe Illustrator 25.2.1, SVG Export Plug-In . SVG Version: 6.00 Build 0)  -->
<svg version="1.1" id="Layer_1" xmlns="http://www.w3.org/2000/svg" xmlns:xlink="http://www.w3.org/1999/xlink" x="0px" y="0px"
	 viewBox="0 0 150 105" style="enable-background:new 0 0 150 105;" xml:space="preserve">
<style type="text/css">
	.st0{fill:none;stroke:#FFFFFF;stroke-width:0.927;stroke-linecap:round;stroke-linejoin:round;stroke-miterlimit:10;}
	.st1{fill:#FFFFFF;}
	.st2{fill:none;stroke:#FFFFFF;stroke-width:4.0287;stroke-linecap:round;stroke-linejoin:round;stroke-miterlimit:10;}
</style>
<g>
	<g>
		<path class="st0" d="M43.16,72.96l-13.83,4.35C19.82,80.29,9.59,74.96,6.6,65.45l0,0c-2.99-9.51,2.35-19.74,11.86-22.73
			l13.83-4.35L43.16,72.96z"/>
		<g>
			<line class="st0" x1="24.57" y1="49.78" x2="30.3" y2="68.02"/>
			<line class="st0" x1="17.15" y1="52.11" x2="22.88" y2="70.35"/>
		</g>
		<g>
			<path class="st0" d="M39.98,62.85l11.28-3.54c1.7-0.54,2.2,0.68,2.68,2.21l0,0c0.48,1.53,0.77,2.81-0.94,3.35l-11.28,3.54"/>
		</g>
		<g>
			<path class="st0" d="M33.99,43.77l11.28-3.54c1.7-0.54,2.2,0.68,2.68,2.21l0,0c0.48,1.53,0.77,2.81-0.94,3.35l-11.28,3.54"/>
		</g>
		<g>
			<path class="st0" d="M37.24,54.12l14.7-4.62c2.22-0.7,2.66,0.22,3.03,1.4l0,0c0.37,1.18,0.53,2.18-1.69,2.88l-14.7,4.62"/>
		</g>
	</g>
	<path class="st0" d="M6.57,93.45L1.09,76.01c-1.39-4.42,1.09-9.17,5.51-10.56l0,0"/>
	<path class="st0" d="M6.57,93.45c1.39,4.42-1.09,9.17-5.51,10.56l0,0"/>
	<g>
		<path class="st0" d="M106.84,32.04l13.83-4.35c9.51-2.99,19.74,2.35,22.73,11.86l0,0c2.99,9.51-2.35,19.74-11.86,22.73
			l-13.83,4.35L106.84,32.04z"/>
		<g>
			<line class="st0" x1="125.43" y1="55.22" x2="119.7" y2="36.98"/>
			<line class="st0" x1="132.85" y1="52.89" x2="127.12" y2="34.65"/>
		</g>
	</g>
	<path class="st0" d="M143.43,11.55l5.48,17.45c1.39,4.42-1.09,9.17-5.51,10.56l0,0"/>
	<path class="st0" d="M143.43,11.55c-1.39-4.42,1.09-9.17,5.51-10.56l0,0"/>
	<g>
		<g>
			<line class="st0" x1="87.82" y1="6.59" x2="86.75" y2="13.28"/>
		</g>
		<g>
			<line class="st0" x1="109.55" y1="16.35" x2="105.25" y2="21.59"/>
		</g>
		<g>
			<line class="st0" x1="115.64" y1="81.03" x2="110.44" y2="76.68"/>
		</g>
		<g>
			<line class="st0" x1="96.13" y1="94.68" x2="93.83" y2="88.3"/>
		</g>
		<g>
			<line class="st0" x1="72.4" y1="96.66" x2="73.62" y2="89.99"/>
		</g>
		<g>
			<line class="st0" x1="50.9" y1="86.42" x2="55.3" y2="81.27"/>
		</g>
		<g>
			<line class="st0" x1="46.22" y1="21.62" x2="51.32" y2="26.08"/>
		</g>
		<g>
			<line class="st0" x1="66.03" y1="8.4" x2="68.19" y2="14.83"/>
		</g>
	</g>
</g>
</svg>
