<?xml version="1.0" encoding="utf-8"?>
<!-- Generator: Adobe Illustrator 27.0.1, SVG Export Plug-In . SVG Version: 6.00 Build 0)  -->
<svg version="1.1" id="Layer_1" xmlns="http://www.w3.org/2000/svg" xmlns:xlink="http://www.w3.org/1999/xlink" x="0px" y="0px"
	 viewBox="0 0 74.6 107.2" style="enable-background:new 0 0 74.6 107.2;" xml:space="preserve">
<style type="text/css">
	.st0{fill:#FFFFFF;}
</style>
<path class="st0" d="M12.7,65.9c-0.4-0.1-0.7-0.3-0.7-0.6v-0.1c-0.1-0.3-0.1-0.5-0.5-0.6h-0.1v0.1c0.3,0.1,0.4,0.2,0.4,0.5v0.1
	C11.9,65.6,12.2,65.9,12.7,65.9c0.4,0.2,0.7,0.6,0.7,0.6v-0.1C13.4,66.5,13.1,66,12.7,65.9z M13.4,62.3c0,0,0.1-0.3,0.4-0.4
	c-0.4-0.2-0.5-0.2-1.1-0.1C13,61.8,13.1,62,13.4,62.3z M11,66.2C11,66.1,11,66.1,11,66.2C11,66.1,11,66.1,11,66.2
	C11,66.1,10.9,66.1,11,66.2c-0.1,0.4,0,0.6,0,0.6v-0.1C11.1,66.7,11,66.5,11,66.2z M12.1,66.2c0.2,0.3,0.3,0.6,0.3,0.6v-0.1
	C12.5,66.8,12.4,66.4,12.1,66.2C12.2,66.2,12.1,66.2,12.1,66.2z M11.4,65.9C11.4,65.9,11.3,65.9,11.4,65.9
	C11.3,65.9,11.3,65.9,11.4,65.9c-0.2,0.3,0,0.6,0.1,0.7v-0.1C11.4,66.5,11.3,66.2,11.4,65.9z M8.1,67.3c-0.2-0.1-0.2-0.1-0.4-0.4
	H7.6V67C7.8,67.2,7.9,67.3,8.1,67.3c0,0.1,0,0.1,0.1,0.1v-0.1H8.1z M12.6,66.2C12.6,66.2,12.5,66.2,12.6,66.2
	C12.5,66.3,12.5,66.3,12.6,66.2c0.3,0.2,0.4,0.4,0.5,0.5v0.1v-0.2C13,66.5,13,66.4,12.6,66.2z M10.7,66.1
	C10.7,66.1,10.6,66.2,10.7,66.1c-0.1,0.4-0.1,0.7-0.1,0.7v-0.1C10.7,66.8,10.7,66.5,10.7,66.1C10.7,66.2,10.7,66.2,10.7,66.1z
	 M10.3,66.2C10.3,66.2,10.3,66.3,10.3,66.2c-0.1,0.3-0.1,0.7-0.1,0.7v-0.1C10.4,66.9,10.3,66.6,10.3,66.2
	C10.4,66.3,10.4,66.2,10.3,66.2z M8.6,67.1c-0.1,0-0.2-0.1-0.3-0.3H8.2v0.1C8.3,67.1,8.5,67.2,8.6,67.1L8.6,67.1L8.6,67.1
	C8.7,67.2,8.6,67.2,8.6,67.1C8.6,67.2,8.6,67.1,8.6,67.1z M9.6,66.4C9.6,66.4,9.5,66.4,9.6,66.4c-0.1,0.2-0.1,0.5,0,0.5v-0.1
	C9.7,66.9,9.6,66.6,9.6,66.4z M8.7,66.7C8.6,66.7,8.6,66.7,8.7,66.7c-0.1,0.2,0,0.2,0.1,0.3v-0.1C8.8,66.9,8.7,66.8,8.7,66.7z"/>
<path class="st0" d="M4.1,66.6c0.7,0.3,1.1,0.5,1.5,0.5c0.2,0,0.4-0.1,0.7-0.2c0.2-0.1,0.4-0.2,0.5-0.3c0,0.1,0,0.5,0.3,0.6h0.1
	c0.1,0,0.2,0,0.3,0.2c0.3,0.3,0.6,0.5,0.9,0.5c0.3,0,0.5-0.2,0.7-0.3c0,0,0.1,0,0.1-0.1c0.2-0.2,0.4-0.2,0.6-0.1
	c0.3,0.1,0.9,0,1.2-0.1c0.4-0.2,0.7-0.2,1,0c0.3,0.1,1.1,0.3,2.8,0.1c0.1,0.1,0.3,0.3,0.7,0.4h0.1v-0.1c0,0-0.1-0.1,0-0.5
	c0.3,0.2,0.9,0.4,1.7,0.1c0,0,0.1,0,0.1-0.1v-0.1c-0.1-0.1-0.2-0.2-0.4-0.3l-0.2-0.2c0.3,0,0.5,0,0.6-0.1h0.1
	c0.2-0.1,0.6-0.3,1.1-1.4V65h-0.1c0,0-0.2,0.1-0.5,0.2c0.3-0.2,0.6-0.6,0.8-1.3v-0.1h-0.1c-0.1,0.1-0.2,0.1-0.4,0.2
	c0.2-0.2,0.4-0.5,0.5-0.9V63h-0.1c-0.1,0.1-0.4,0.2-0.8,0.3c0.2-0.2,0.4-0.4,0.7-0.8v-0.1h-0.1c0,0-0.3,0.2-0.7,0.1
	c0.5-0.6,0.6-1.2,0.4-2.7c0,0,0-0.1-0.1-0.1c0,0-0.1,0-0.1,0.1c-0.3,1.2-1.3,1.4-1.4,1.4h-0.1c0.1-0.1,0.2-0.2,0.3-0.4
	c0.2-0.4,0.4-1.1-0.1-2.2c0,0,0-0.1-0.1-0.1h-0.1c-0.1,0.2-0.3,0.3-0.3,0.4c-0.2,0.3-0.3,0.5-0.9,0.6c-0.6,0.2-1.1,0.6-1.3,1.1
	c-0.2-0.1-0.3-0.1-0.6-0.1c-0.4,0-0.8,0.2-1.2,0.5c-0.5-0.2-1.1-0.2-1.4,0.3c-0.2,0.2-0.2,0.2-0.4,0.1c-0.1,0-0.1-0.1-0.2-0.1
	c-0.3-0.1-1-0.4-1.7,0.1c0,0-0.1,0.1,0,0.1s0.1,0.1,0.1,0.1c0.3,0,0.5,0,0.6,0.1c-0.3,0-0.2,0.1-0.2,0.2s0,0.2-0.1,0.2
	c-0.1,0.1-0.2,0.1-0.3,0.1H8c-0.1,0-0.1,0-0.2-0.1s-0.3-0.2-0.7-0.2c-0.3,0-0.5,0.1-0.7,0.3c0,0-0.1,0.4-0.5,0.6
	c-0.1,0.1-0.2,0.2-0.3,0.4c-0.1,0.3,0,0.7,0.1,0.8c0.1,0.2,0.4,0.3,0.7,0.3h0.2c0,0.1,0.2,0.3,0.4,0.5H6.8c-0.2,0-0.3,0.1-0.5,0.2
	s-0.4,0.2-1.1-0.1c-0.3-0.1-0.6-0.1-1.3,0.3c-0.3,0.2-0.4,0.4-0.4,0.7C3.6,66.3,3.8,66.5,4.1,66.6z M17.1,62.3L17.1,62.3
	c0,0.1,0,0.2,0.1,0.2c0.3,0.1,0.5,0,0.7,0c-0.4,0.6-0.8,0.7-1.2,0.8c-0.1,0-0.1,0.1-0.1,0.1c0,0.1,0.1,0.1,0.1,0.1
	c0.7-0.1,1.2-0.2,1.5-0.3c-0.3,0.5-0.5,0.7-0.8,0.9c-0.2,0-1,0.1-1.6,0c0.2-0.2,0.7-0.8,1-1.4v-0.1h-0.1c0,0-0.2,0.1-0.5,0.1h0.1
	c0.4-0.3,1-0.6,1.5-1.6C17.6,61.6,17.4,61.9,17.1,62.3z M16.3,60.5c-0.2,0.4-0.6,0.6-0.6,0.6h-0.4c0.2-0.2,0.5-0.5,0.7-0.8h-0.5
	c0.2-0.1,0.6-0.3,0.9-0.8C16.4,59.9,16.4,60.2,16.3,60.5z M7.9,62.4h0.6c0.1,0,0.3,0,0.4-0.1c0.1-0.1,0.2-0.2,0.2-0.4s0-0.3-0.1-0.4
	c-0.1-0.1-0.2-0.1-0.3-0.1c0.4-0.1,0.8,0,1.1,0.1c0.1,0,0.2,0.1,0.2,0.1c0.2,0.1,0.4,0.2,0.6-0.2c0.3-0.3,0.7-0.4,1.1-0.3l-0.1,0.1
	v0.1h0.1c0.4-0.5,0.8-0.7,1.2-0.7c0.2,0,0.4,0.1,0.6,0.2c0.1,0.1,0.2,0.2,0.3,0.2c0,0,0.1,0.1,0.1,0c0,0,0.1-0.1,0-0.1
	c-0.1-0.1-0.1-0.2-0.3-0.2c0.1-0.4,0.6-0.9,1.1-1c0.6-0.2,0.7-0.3,1-0.7c0.1-0.1,0.1-0.2,0.2-0.3c0.1,0.2,0.1,0.4,0.2,0.6
	c-0.4,0.6-0.8,0.7-1,0.9c-0.1,0-0.1,0-0.1,0.1v0.1h0.6c-0.2,0.3-0.6,0.7-0.8,0.8c-0.6,0.1-0.9,0.4-0.9,1.3c0,0.1,0,0.1,0.1,0.1
	s0.1,0,0.1-0.1c0-0.9,0.4-1.1,1.1-1.2h0.2l0.6-0.1c0,0,0.9-0.2,1.4-1.1v0.6c-0.5,1.2-1.1,1.5-1.6,1.8c-0.1,0-0.1,0.1-0.2,0.1v0.1
	c0.3,0,0.5,0,0.6-0.1c-0.4,0.6-1,1.3-1,1.3c0.3,0.1,0.7,0.1,1,0.1H17c0,0,0.1,0.1,0.1,0c0.3-0.1,0.6-0.2,0.7-0.3
	c-0.4,0.9-0.9,1-1.1,1.1l-0.1,0.1c0,0.1,0.1,0.1,0.1,0.1c0.4,0,0.7-0.1,1-0.2c-0.2,0.4-0.4,0.6-0.5,0.8c-1.1-0.1-2-0.7-2.3-0.9h-0.1
	v0.1c0.3,0.2,1.2,0.8,2.3,0.9c-0.1,0.1-0.2,0.1-0.3,0.2c0,0-0.1,0-0.1,0.1c-0.1,0.1-0.7,0.1-1-0.1h-0.1V66c0.3,0.2,0.6,0.4,0.7,0.6
	l0.2,0.2c-0.1,0-0.3,0.1-0.4,0.1c-0.9-0.5-1.4-1.1-1.4-1.2h-0.1v0.1c0,0,0.5,0.6,1.3,1.1c-0.4,0-0.6-0.2-0.8-0.3H15
	c0,0-0.1,0-0.1,0.1v0.6c-0.2-0.1-0.3-0.2-0.4-0.3v-0.1c-0.2-0.3-0.4-0.9-0.4-0.9H14v0.1c0,0,0.1,0.5,0.3,0.8c-1.6,0.2-2.5,0-2.7-0.1
	c-0.3-0.1-0.6-0.2-1.1,0c-0.2,0.1-0.8,0.2-1,0.1c-0.3-0.1-0.6,0-0.8,0.2c0,0-0.1,0-0.1,0.1c-0.3,0.2-0.6,0.5-1.2-0.1
	C7.5,67,7.3,67,7.2,67H7.1C7,67,7,66.7,7,66.6h0.3c0.3,0,0.8-0.1,1-0.1c0.2-0.1,0.4-0.2,0.5-0.4c0.1-0.3,0.6-0.4,0.6-0.4h0.3
	c0.2,0.1,0.4,0.1,0.5,0.1s0.3,0,0.4-0.1c0,0,0.1,0,0.1-0.1c0.1-0.1,0.1-0.1,0.5-0.1c0,0,0.1,0,0.1-0.1v-0.1C11.2,65.1,11,65,10.9,65
	c-0.1-0.1-0.2-0.3-0.2-0.5c0,0-0.1,0.1-0.2,0.3h-0.1c0-0.1,0-0.3-0.2-0.6h-0.1c0,0.1,0,0.3-0.3,0.6H9.6c0.1-0.1,0.3-0.3,0.3-0.6
	c0.1-0.4,0-0.7-0.2-0.9S9.2,63,8.8,63v0.1c0.2,0.2,0.3,0.4,0.3,0.7c0,0.4-0.4,0.6-0.5,0.6s-0.1,0.1-0.2,0.2
	c-0.1-0.1-0.1-0.2-0.2-0.3c0.2-0.1,0.3-0.3,0.3-0.6S8.4,63.1,8.1,63c-0.3-0.2-0.3-0.3-0.4-0.4c0-0.1,0-0.1-0.1-0.2l-0.1-0.1
	C7.8,62.3,7.8,62.3,7.9,62.4L7.9,62.4z M7.8,66.3c-0.3-0.3-0.2-0.8-0.1-0.9l0.1,0.1C8,65.7,8.1,66,8.5,66.1
	c-0.1,0.1-0.2,0.2-0.3,0.2C8.2,66.3,7.8,66.3,7.8,66.3z M7.6,64.3c0.1,0.1,0.3,0.1,0.5,0c0.1,0.1,0.1,0.2,0.2,0.3
	c-0.1,0.1-0.2,0.3-0.2,0.7C7.9,65.1,7.7,64.8,7.6,64.3z M7.7,64.9C7.6,64.9,7.6,64.9,7.7,64.9L7.7,64.9C7.7,64.8,7.7,64.9,7.7,64.9z
	 M8.3,64.6C8.3,64.6,8.4,64.7,8.3,64.6c0.1,0.1,0.1,0.2,0.1,0.2l0.1,0.1c0,0,0.1,0,0.1,0.1h1c0.2,0,0.4-0.1,0.6-0.1
	c-0.1,0.2-0.1,0.4-0.1,0.6c-0.1,0-0.2,0-0.4-0.1H9.3c-0.6-0.1-1-0.3-1.2-0.4C8.2,64.8,8.3,64.7,8.3,64.6z M8.5,64.6
	c0-0.1,0.1-0.1,0.2-0.2c0,0,0.5-0.3,0.5-0.7c0-0.2-0.1-0.4-0.2-0.6c0.3,0,0.5,0.2,0.7,0.3c0.2,0.2,0.2,0.5,0.1,0.9s-0.3,0.5-0.4,0.6
	c-0.4,0.1-0.6,0-0.6,0c-0.1,0-0.1,0-0.1-0.1c-0.1,0-0.1,0-0.1-0.1C8.5,64.7,8.5,64.7,8.5,64.6z M9.9,64.8c0.2-0.2,0.2-0.4,0.2-0.5
	c0.1,0.2,0.1,0.4,0.1,0.4C10.1,64.8,10,64.8,9.9,64.8z M10.6,64.5c0.1,0.4,0.3,0.7,0.5,0.8c-0.3,0-0.4,0.1-0.5,0.2s-0.1,0.1-0.2,0.1
	C10.3,65.1,10.5,64.7,10.6,64.5z M5.9,64c-0.1-0.1-0.1-0.4-0.1-0.7c0-0.1,0.1-0.2,0.2-0.2c0.5-0.3,0.6-0.6,0.6-0.7
	c0.1-0.1,0.3-0.2,0.5-0.2s0.4,0.1,0.5,0.3c0,0,0,0.1,0.1,0.1c0.1,0.2,0.1,0.4,0.5,0.6c0.2,0.1,0.3,0.3,0.3,0.5S8.4,64,8.3,64.1
	c-0.3,0.2-0.4,0.1-0.5,0.1c-0.4-0.2-0.6-0.1-1,0C6.3,64.3,6,64.1,5.9,64L5.9,64z M7.1,64.2h0.4c0,0.1,0.1,0.3,0.1,0.4V65
	C7.4,64.9,7.2,64.6,7.1,64.2z M7.3,64.9C7.2,64.9,7.2,64.9,7.3,64.9C7.2,64.9,7.2,64.8,7.3,64.9L7.3,64.9z M6.6,64.3
	C6.7,64.3,6.7,64.3,6.6,64.3c0.2-0.1,0.3-0.1,0.3-0.1c0,0.1,0,0.2,0.1,0.3v0.4C6.8,64.7,6.7,64.5,6.6,64.3z M4.1,65.5
	c0.4-0.3,0.7-0.4,0.9-0.4h0.2c0.8,0.3,1,0.2,1.2,0.1c0.1-0.1,0.2-0.1,0.4-0.1h0.6l0.1,0.1c0.1,0,0.2,0,0.2,0.1c0.3,0,0.3,0,0.4,0.1
	c0.2,0.1,0.4,0.2,0.8,0.3c-0.2,0.1-0.4,0.2-0.4,0.4C8.2,66,8,65.8,7.8,65.5c0-0.1-0.1-0.1-0.1-0.2c0,0-0.2,0.7,0.1,1.1
	c-0.2,0-0.4,0.1-0.5,0.1H7.2c-0.2,0-0.4,0-0.9,0.3c-0.6,0.3-0.8,0.2-2-0.3c-0.2-0.1-0.4-0.3-0.4-0.5C3.7,65.8,3.8,65.6,4.1,65.5z"/>
<path class="st0" d="M11.2,63.5C11.3,63.5,11.3,63.5,11.2,63.5C11.3,63.5,11.3,63.5,11.2,63.5C11.3,63.5,11.3,63.5,11.2,63.5
	c0.1,0,0-0.2-0.3-0.3c0-0.1,0.1-0.3,0-0.5c0.1,0,0.2-0.1,0.2-0.1c0.2,0.1,0.5,0,0.7,0c-0.1,0.1-0.2,0.2-0.2,0.4
	c0,0.3,0.2,0.5,0.5,0.5h0.1c0.1,0.2,0.1,0.3,0.1,0.3v-0.1c0,0,0-0.1,0.1-0.1l0.1-0.1H13c-0.1-0.1-0.2-0.1-0.4-0.2v-0.4
	c0-0.1-0.1-0.1-0.2-0.2l-0.1-0.1h-0.1c-0.3,0.1-0.9,0.2-1.1,0.1H11c-0.1,0.1-0.3,0.2-0.3,0.2c0.2,0.2,0,0.5,0,0.5
	C11.2,63.3,11.2,63.5,11.2,63.5z M12.4,62.6l0.2,0.2v0.3c-0.2-0.2-0.4-0.3-0.4-0.4c0,0.2,0,0.5,0.1,0.6h-0.1c-0.2,0-0.4-0.2-0.4-0.4
	s0.2-0.4,0.4-0.4C12.3,62.6,12.4,62.6,12.4,62.6z M7.8,63.9H8c0.1,0,0.2-0.3,0.1-0.4c0-0.1,0-0.2-0.2-0.2H7.7
	c-0.1,0.1-0.1,0.2-0.1,0.2s0,0.1,0.1,0.1c-0.1,0.1-0.1,0.1-0.2,0.1H7.4v0.1C7.5,63.8,7.6,63.9,7.8,63.9z M7.9,63.6l-0.2-0.1
	c0,0,0-0.1,0.1-0.1h0.1C8,63.4,8,63.4,7.9,63.6c0.1-0.1,0.1,0.1,0,0.1H7.7C7.8,63.7,7.8,63.7,7.9,63.6z M6.4,63.2
	C6.4,63.1,6.4,63.1,6.4,63.2c-0.1,0-0.3,0-0.4,0.2s0,0.4,0,0.5v-0.1c0,0,0-0.1,0.1-0.2c0,0.1,0.1,0.1,0.2,0.1c0,0,0.1,0,0.2-0.1
	v-0.2C6.6,63.2,6.5,63.2,6.4,63.2z M6.5,63.5L6.5,63.5c-0.1,0.1-0.2,0.1-0.2,0c-0.1,0-0.1,0.1-0.1,0.2v-0.2
	C6.2,63.4,6.4,63.4,6.5,63.5C6.4,63.3,6.5,63.3,6.5,63.5C6.5,63.4,6.5,63.5,6.5,63.5z"/>
<path class="st0" d="M73.5,21.7v-0.4H1.9v43.3c0,13.9,12.3,28.6,34.5,41.4l1.3,0.8L39,106c22.3-12.8,34.5-27.5,34.5-41.4V21.7z
	 M32.8,43c0.4,0.2,0.6,0.4,0.8,0.6v0.1c0,0,0,0.1,0.1,0.1c0.1,0.2,0.1,0.3,0.1,0.5v0.3c0,0.1,0.1,0.3,0.2,0.4
	c-0.6-0.1-1.1-0.3-1.3-0.7c0-0.1-0.1-0.2-0.1-0.3c-0.1-0.4-0.2-0.6-0.3-0.7l-0.1-0.1h-0.1v0.1c0.1,0.2,0.1,0.3,0.1,0.4v0.1
	c0,0.1,0.1,0.3,0.1,0.4v0.2c0,0.1,0.1,0.3,0.2,0.4l0.2,0.2c0.1,0,0.3,0.1,0.5,0.2c-0.6-0.1-1.1-0.2-1.3-0.9c0.1-0.2,0.1-0.4,0.1-0.8
	c0,0,0-0.1-0.1-0.1c0,0-0.1,0-0.1,0.1c-0.1,0.6,0,1.1,0.1,1.4c0.1,0.1,0.1,0.2,0.2,0.3l0.2,0.2c-0.3,0.3-0.8,0.4-1.1,0.5v-0.1
	c0.2-0.5,0.2-0.8,0.1-1.1c0-0.1,0-0.2-0.1-0.3v-1.1c0.3-0.4,0.9-0.5,1.1-0.6c0.1,0.1,0.1,0.1,0.2,0.1h0.4c0.2,0,0.4,0.2,0.7,0.5
	c0,0,0.1,0.1,0.1,0.2c0.1,0.1,0.3,0.2,0.4,0.3c0.2,0.1,0.4,0.1,0.5,0.2c-0.4,0.4-0.7,0.5-0.8,0.5c-0.1-0.5-0.3-0.9-0.7-1.2L33,43.2
	c0,0-0.1,0-0.2-0.1S32.6,43,32.5,43C32.8,42.9,32.7,42.9,32.8,43C32.7,43,32.7,43,32.8,43L32.8,43z M23.6,40.8c0,0,2.9-0.9,5,0.3
	c1,0.5,1.6,1.4,2,2.6c0,0,0.1,0.8,0,1.3c-0.4-0.3-1-0.8-1.2-0.9c0,0-1.4-2.3-3.6-2.8c-1.1-0.2-2.2,0-3.3,0.7h-0.7
	c0.2-0.9,0.6-1.2,0.9-1.6l0.1-0.1c0.3-0.3,1-1.1,1.9-1.7c0.7-0.5,3-2.4,3.3-2.8c0.5-0.5,1.1-0.9,1.5-1.1c0.1-0.1,0.2-0.1,0.2-0.1
	c0.6-0.4,1.6-0.4,2.2-0.4c-0.9,0.6-1.4,1-1.6,1.3s-1.4,1.3-1.8,1.6s-1.1,0.8-1.4,1c-0.2,0.2-0.8,0.6-0.9,0.6c-0.3,0.1-1.4,0.7-2,1
	c-0.2,0.1-0.3,0.1-0.4,0.2V40H24c0,0,0.1-0.1,0.3-0.2c0.5-0.2,1.2-0.5,1.6-0.6c0,0,2.9-1.2,5-0.9c0.1,0,1.3,0.1,1.9,0
	c-0.4,0.4-1.7,1.1-3.1,0.9h-1.9c-0.4,0.1-0.8,0.1-1,0.2h-0.4l-0.1,0.1c0,0.1,0,0.1,0.4,0h0.6c0.2,0,1.3,0.1,1.9,0.3
	c0.4,0.2,1.3,0.7,1.8,1.3l0.2,0.2c0.3,0.4,0.4,0.5,0.6,0.6C31.9,42,32,42,32.1,42h0.1c0.1,0,0.2,0,0.4,0.2c-0.2,0.1-0.7,0.2-1,0.5
	v-0.5c0-0.1-0.1-0.2-0.2-0.2l-0.2-0.2c-0.1-0.2-1.1-1.1-1.6-1.4c-0.9-0.5-1.5-0.6-2.3-0.7h-0.4c-0.9,0-2.7,0.5-3.3,0.8
	C23.5,40.6,23.5,40.7,23.6,40.8C23.5,40.7,23.6,40.8,23.6,40.8L23.6,40.8z M25.3,50.5C25.3,50.6,25.4,50.6,25.3,50.5h0.2
	c0-0.1,0.1-0.2,0.2-0.3s0.5,0,0.7,0.2s0.2,0.6,0,1c-0.1,0.2-0.3,0.3-0.5,0.4c-0.3,0-0.6,0-0.8-0.2c-1.5-1.7-0.9-3.2-0.1-4.5V47
	l-0.1-0.1h-0.1c-0.2,0-0.3,0-0.7-0.2c1.8-0.8,2-1.5,2.2-2.1v-0.1c0.1-0.3,0-0.7-0.2-1.2c-0.3-0.5-0.7-0.9-1.1-1
	c-0.6-0.2-1.1,0-1.5,0.3c-0.3,0.3-0.3,0.5-0.3,1v0.1h0.1c0.1,0,0.3-0.1,0.4-0.1s0.4,0.3,0.5,0.5c0,0.1,0,0.3-0.1,0.5
	c-0.1,0.1-0.2,0.2-0.4,0.2c-0.4,0.1-0.8-0.1-1-0.4c0-0.1-0.5-0.8,0-1.7c0.4-0.6,1.2-1,2-0.9c0.9,0.1,1.6,0.6,2,1.4
	c0.7,1.3-0.4,2.9-1.1,4.1c-0.2,0.4-0.4,0.7-0.5,0.9C24.7,49.1,24.8,49.7,25.3,50.5z M17.5,55.6c-3.8-3.3-1.3-6.6,0-8.2
	c0.1-0.1,0.1-0.2,0.2-0.3c1-1.4,0.6-2.4,0.1-3.2H22c-0.5,0.9-0.9,1.9,0.1,3.2c0.1,0.1,0.1,0.2,0.2,0.3c1.2,1.6,3.7,4.9-0.1,8.2H17.5
	z M22.2,55.8v0.5h-4.6v-0.5H22.2z M14.7,48c-0.1-0.2-0.3-0.6-0.5-0.9c-0.7-1.2-1.8-2.8-1.1-4.1c0.4-0.8,1.2-1.3,2-1.4
	c0.8-0.1,1.6,0.3,2,0.9c0.5,0.9,0,1.7,0,1.7c-0.2,0.3-0.6,0.5-1,0.4c-0.2,0-0.3-0.1-0.4-0.3c-0.1-0.2-0.1-0.4-0.1-0.5
	c0-0.2,0.4-0.5,0.5-0.5s0.3,0.1,0.4,0.1h0.1v-0.1c0-0.5,0-0.7-0.3-1c-0.4-0.4-0.9-0.5-1.5-0.3c-0.4,0.1-0.9,0.5-1.1,1
	c-0.2,0.4-0.3,0.9-0.2,1.2v0.1c0.2,0.6,0.4,1.3,2.2,2.1c-0.3,0.2-0.5,0.2-0.7,0.2h-0.1c0,0-0.1,0-0.1,0.1v0.1
	c0.8,1.3,1.4,2.9-0.1,4.5c-0.2,0.2-0.6,0.3-0.8,0.2c-0.2,0-0.4-0.2-0.5-0.4c-0.2-0.4-0.1-0.8,0-1c0.1-0.1,0.4-0.2,0.5-0.2h0.2
	c0.1,0.1,0.2,0.3,0.2,0.3s0,0.1,0.1,0.1h0.1C15.1,49.7,15.1,49.1,14.7,48z M15.9,40.7c-1.3-0.7-2.3-0.5-3-0.4h-0.4
	c-1.3,0.1-3.2,1.4-3.7,2.2l-0.5-0.1c0.2-0.3,0.5-0.6,0.9-0.9c1.2-1,1.6-1.1,2.2-1.3h0.1c1.4-0.4,2.8-0.4,3.9,0l0.3,0.1
	c0.9,0.4,1.5,0.6,2.1,1.6h-0.6c-1.2-1.1-2.8-1.2-4.1-0.1c-0.3,0.2-0.6,0.6-0.8,1c-0.1,0.1-0.2,0.3-0.3,0.4c-0.1,0.2-0.9,0.9-1.2,1.1
	c-0.1-1.8,0.7-2.7,1.3-3.1c0.7-0.4,1.3-0.7,1.9-0.7c0.9-0.1,1.8,0.3,1.8,0.3L15.9,40.7C15.9,40.8,15.9,40.7,15.9,40.7z M8.5,44v0.4
	c0.1,1.1-0.6,1.6-1.2,2c-0.1,0-0.1,0.1-0.2,0.1c-0.2,0.1-0.3,0.2-0.3,0.1c-0.1-0.1,0-0.3,0.1-0.4c0.3-0.3,0.5-1.1,0.6-1.5
	c0-0.3,0-0.3,0.1-0.4c0,0,0-0.1,0.1-0.1c0.1-0.1,0.2-0.2,0.2-0.4v-0.1H7.8c0,0-0.2,0.1-0.5,0.3S7,44.4,7,44.8V45
	c0,0.3-0.2,0.8-0.6,1.3l-0.1,0.1c-0.1-0.2-0.1-0.8,0.1-1.5c0.2-1,0.6-1.3,1.1-1.5c0,0,0.3-0.1,0.5-0.2v-0.3l0.2-0.2l0.1-0.1l0.5,0.1
	C8.4,43.2,8.4,43.5,8.5,44z M12.2,25.8l1.4-0.7l-1.3-0.5l1.7-0.5l-1.1-0.5l1.3-0.4l-0.9-0.9l3.2-0.1l-1.1,0.6l1,0.1l-0.6,0.9l1-0.2
	l-0.2,0.8l0.7-0.4v0.6l0.6-0.4l0.1,0.7c-0.2,0.3-0.5,0.8-0.6,1.1c-0.1,0-0.2-0.1-0.3-0.1h-0.2v3.9c0.4,0.4,1.2,0.4,1.2,0.4
	c0.7,0,1.3,0.2,1.3,0.3v0.2c-0.4-0.2-0.6-0.2-1-0.3h-0.3c-0.6,0-1-0.2-1.5-0.4v-4c0,0,0-0.1-0.1-0.1s-0.1,0-0.1,0.1v4
	c0.5,0.3,0.9,0.4,1.5,0.5h0.3c0.3,0,0.5,0,1,0.3V31c-0.4-0.2-0.6-0.2-0.9-0.2H18c-0.8,0-1.3-0.4-1.7-0.6v-3.9c0,0,0-0.1-0.1-0.1
	s-0.1,0-0.1,0.1v3.9c0.4,0.2,1,0.6,1.8,0.6h0.3c0.3,0,0.5,0,0.9,0.3v0.2c0-0.3-0.7-0.3-0.7-0.3l-0.6-0.1c-0.5-0.1-1.3-0.6-1.4-0.7
	v-3.8c0,0,0-0.1-0.1-0.1s-0.1,0-0.1,0.1v3.9c0,0,0.9,0.6,1.5,0.7l0.7,0.1c0,0,0.7,0,1.1,0.3c0.1,0,0.7-0.3,1.1-0.3
	c0.6,0,1.4,0,2.2-0.6v-4.2h-0.1l-0.2,0.1v-0.2h-0.1l-0.2,0.1V26h-0.1l-0.2,0.1h-0.1c0,0-0.5,0.2-0.9,0.2h-0.1c0,0-0.3-0.1-0.7-0.1
	c0.1-0.3,0.2-0.6,0.4-0.9c0,0,0.1-0.1,0.1-0.6l0.5,0.3L21,24.2l0.8,0.7L21.5,24l1,0.4l-0.7-0.9l1,0.1L22.2,23l1.1-0.2l-0.8-0.4
	l3.3,0.1l-1.3,0.8l2,0.7l-1.7,0.2l1.8,0.8h-1.1l1.8,1h-1.8l2.4,1.3L26.3,27l0.7,1.2l-1.6-0.8l1.3,2l-1.3-0.6L26,30l-1.2-0.8l0.7,2.2
	L24,30.2l0.5,2.1l-1.3-1.2L23,32.6l-0.9-1.2l-0.3,1.3L21,31.9l-0.4,1L19.7,32l-0.6,1l-0.6-1l-0.9,0.9l-0.2-1.1l-0.9,0.6l-0.2-0.9
	l-0.9,0.7l0.1-1.1l-0.9,0.7v-1.4l-1.6,1l0.9-1.8l-1.8,0.7l1.3-1.7L12,28.7l1.6-1.5l-1.9,0.2l1.6-1.3C13.3,26.1,12.2,25.8,12.2,25.8z
	 M18.9,23.1v-0.9h1.8c-0.2,0.4-0.1,1-0.1,1c0.2,1.5,0.1,1.8,0.1,1.8c-0.3,0.8-0.7,1.7-0.7,1.7l0.1,0.9c0.1,0.2,0,0.5-0.1,0.7
	s-0.2,0.3-0.3,0.3h-0.1c-0.1-0.1-0.1-0.2-0.1-0.3v-0.2c0.1,0,0.2-0.1,0.2-0.1s0.1,0,0.1,0.1h0.1V28c0-0.1-0.1-0.1-0.1-0.1
	c-0.1,0-0.2,0-0.3,0.1c0-0.1,0-0.1-0.1-0.2c-0.2-0.5-0.3-1.7-0.3-1.7s0-0.1-0.1-0.1s-0.5-0.1-0.5-0.1c-0.3,0-0.7-0.1-0.8-0.2
	c0.1-0.4,0.7-1.2,0.7-1.2l0.1-0.1C18.9,23.6,18.9,23.1,18.9,23.1z M22.7,26.5l0.2-0.1v4C22.1,31,21.3,31,20.8,31
	c-0.4,0-0.9,0.2-1.1,0.3V31c0.5-0.2,0.6-0.3,1-0.3H21c1,0,1.2-0.2,1.5-0.4c0.1-0.1,0.2-0.1,0.3-0.2C22.8,30.1,22.7,26.5,22.7,26.5z
	 M22.3,30.3c-0.3,0.2-0.5,0.3-1.5,0.4h-0.3c-0.3,0-0.5,0-0.9,0.2v-0.2c0.5-0.3,0.7-0.3,1.1-0.3h0.2c0.8,0,1.3-0.3,1.4-0.4v-3.7
	l0.1-0.1v3.9C22.5,30.2,22.4,30.3,22.3,30.3z M22.3,26.3V30c-0.1,0.1-0.6,0.4-1.3,0.4h-0.2c-0.4,0-0.6,0-1.1,0.3v-0.2
	c0.2-0.1,0.8-0.3,1.4-0.2c0,0,0.7,0,1.1-0.4v-3.6l0.2-0.1v0.1H22.3z M22,29.7c-0.4,0.3-0.9,0.4-1,0.4c-0.6-0.1-1.2,0.1-1.4,0.2v-1.4
	c0.2,0,0.3-0.2,0.4-0.3c0.1-0.2,0.3-0.6,0.2-0.8L20.1,27c0-0.1,0.1-0.3,0.2-0.6c0.4,0,0.7,0.1,0.7,0.1c0.4,0,0.8-0.1,0.9-0.2
	L22,29.7L22,29.7z M19.5,28.8h0.1v1.5c-0.1-0.1-0.6-0.3-1.3-0.2c0,0-0.7,0-1.1-0.4v-3.8c0.2,0.1,0.7,0.3,1.1,0.4h0.6
	c0,0.3,0.1,1.3,0.3,1.7c0.1,0.2,0.1,0.3,0.1,0.4C19.3,28.4,19.3,28.7,19.5,28.8z M18.3,37.4c-0.2,0.2-0.3,0.4-0.3,0.7h-0.5
	c-0.4-0.3-0.9-0.7-1.2-1.7C17.7,36.4,18.2,37.2,18.3,37.4z M16.4,33.8c0.1,0.2,0.2,0.6,0.4,1c0.2,0.5,0.5,1.1,0.6,1.6
	c-0.2-0.1-0.5-0.2-0.8-0.2C16.5,36,16.3,35.1,16.4,33.8z M21.7,36.3c-0.3,1-1,1.3-1.4,1.6c-0.1,0-0.1,0.1-0.2,0.1h-0.3v-0.1
	c0-0.1-0.1-0.2-0.1-0.3l-0.1-0.1l-0.1-0.1c0.1-0.2,0.3-0.4,0.3-0.4C20.1,36.4,20.8,36.2,21.7,36.3z M20.6,36.2
	c0.3-0.6,0.8-1.6,1.1-2.1c0.1,0.6,0,1.3-0.2,2.1C21.2,36.1,20.9,36.1,20.6,36.2z M19.5,41.2l0.1-0.5c0.2-0.5,0.3-0.9,0.2-1.3v-0.3
	c0.3,0.2,0.6,0.4,0.7,0.4c-0.5,1-0.5,1.8-0.5,2.3v0.1h-0.6C19.5,41.5,19.5,41.2,19.5,41.2z M19.6,38.8l0.1-0.1v-0.5
	c1,0.1,1.5,0.4,1.9,1.1c-0.5,0.2-1,0.2-1.2,0.1h-0.1C20.4,39.3,19.8,39,19.6,38.8z M20.3,38c0.3-0.1,0.6-0.3,0.9-0.6
	C21.1,37.7,21,38,21,38.2C20.8,38.1,20.6,38.1,20.3,38z M19.3,37.2c-0.1-0.1-0.2-0.1-0.4-0.1h-0.1c-0.1,0-0.2,0-0.3,0.1
	c-0.2-0.5-0.4-1.5,0.3-2C19.5,35.9,19.6,36.5,19.3,37.2z M17.1,38.4c-0.2,0.1-0.3,0.3-0.4,0.7c-1.4-1.2-1.8-1.5-2.4-1.8
	c-1.6-0.8-1.8-1.2-2.1-1.9c0-0.1,0-0.1-0.1-0.2c1.2,0.2,2.1,0.8,2.5,1c0.2,0.1,0.3,0.2,0.4,0.2c0.1,0.1,0.2,0.1,0.4,0.2
	C16,36.9,16.9,38,17.1,38.4z M17.3,38.4c0.1-0.1,0.3-0.1,0.4-0.1h0.2v0.3c0,0.1,0.2,0.2,0.3,0.2l-0.1,0.1c-0.3,0.5-0.5,0.9-1.7,1
	C16.8,39.1,17,38.5,17.3,38.4z M18.2,38.4v-0.3c0-0.2,0.1-0.5,0.3-0.6h0.1c0.1,0,0.1-0.1,0.2-0.1h0.5c0.1,0,0.1,0.1,0.2,0.1
	c0.1,0.1,0.1,0.2,0.1,0.2v0.6c0,0.1-0.1,0.1-0.1,0.2h-0.1c-0.1,0.1-0.1,0.1-0.2,0.1s-0.2,0.1-0.3,0.1h-0.3
	C18.4,38.8,18.2,38.6,18.2,38.4z M18.5,39c0.1,0.1,0.2,0.1,0.2,0.1h0.1c0.1,0,0.2,0,0.3-0.1c0.1,0,0.1-0.1,0.2-0.1
	c0.5,0.8,0.1,1.7-0.3,2.2C18.2,40.5,18.3,39.7,18.5,39z M22.2,42.8v1h-4.4v-1H22.2z M21.1,41.9h-0.5c0-1.2,0.4-2,0.5-2.2l0.1-0.2
	c0.2,0,0.4-0.1,0.7-0.2v-0.1c-0.1-0.2-0.2-0.3-0.3-0.4v-0.1c1.1-1.4,1.6-2,3-2.9c-0.4,2.3-1,3-1.5,3.4c-0.6,0.5-1.5,1.6-1.6,2.6
	h-0.4L21.1,41.9z M12.9,37.7c0.4,0.1,2.2,0.8,3.6,1.7c-0.1,0.2-0.1,0.4-0.2,0.7v0.1h0.1c0.3,0,0.6-0.1,0.8-0.1
	c0.2,0.2,0.3,0.3,0.3,0.4c0,0.1,0.1,0.1,0.1,0.1h0.1v-0.2c-0.1-0.1-0.2-0.3-0.2-0.5c0.2-0.1,0.4-0.2,0.5-0.4c0,0.1,0.1,0.2,0.1,0.2
	c0,0.4,0.2,0.8,0.6,1.2c0.1,0.3,0.2,0.5,0.3,0.8h-0.8c-0.7-1.3-2-1.8-3.2-2.3c-1-0.4-1.3-0.5-1.9-0.7c-0.2-0.1-0.4-0.1-0.6-0.2
	c-1.1-0.3-2.1-0.7-2.4-1.1l-0.6-0.9c0.7,0.3,1.6,0.6,2,0.6C11.9,37.4,12.6,37.6,12.9,37.7z M23.1,22.6l-0.9,0.2l0.5,0.5l-0.8-0.1
	l0.5,0.7l-0.8-0.3l0.2,0.8l-0.7-0.5l0.1,0.8l-0.3-0.2c0-0.3-0.1-0.6-0.1-1.1c0,0,0-0.7,0.2-1.1v-0.1h1.1
	C22.1,22.2,23.1,22.6,23.1,22.6z M18.7,22.2v1c0,0,0,0.5-0.5,1.3v0.1l-0.1-0.7l-0.6,0.4v-0.5L17,24l0.2-0.6l-0.8,0.2l0.5-0.8h-0.7
	l1.1-0.6H18.7C18.8,22.1,18.7,22.1,18.7,22.2z M50.5,80.6c-0.8,0-1.6,0.3-2.1,0.9h-1.8v-1.4h7.5v1.4h-1.7
	C52,80.9,51.3,80.6,50.5,80.6z M52.3,81.7V86h-3.8v-4.3c0.4-0.6,1.2-0.9,1.9-0.9h0.1C51.3,80.8,52,81.1,52.3,81.7z M46.1,61.1h0.5
	c0.1,0,0.1-0.1,0.1-0.1v-0.5H47V61c0,0.1,0.1,0.1,0.1,0.1h0.5c0.1,0,0.1-0.1,0.1-0.1v-0.5H48v0.8h-2.2v-0.8H46V61
	C46,61.1,46.1,61.1,46.1,61.1z M49.8,61.1h0.5c0.1,0,0.1-0.1,0.1-0.1v-0.5h0.3V61c0,0.1,0.1,0.1,0.1,0.1h0.5c0.1,0,0.1-0.1,0.1-0.1
	v-0.5h0.2v0.8h-2.2v-0.8h0.3V61C49.7,61,49.7,61.1,49.8,61.1z M53.3,61h0.5c0.1,0,0.1-0.1,0.1-0.1v-0.5h0.3v0.5
	c0,0.1,0.1,0.1,0.1,0.1h0.5c0.1,0,0.1-0.1,0.1-0.1v-0.5h0.2v0.8h-2.2v-0.8h0.3v0.5C53.2,61,53.2,61,53.3,61z M56.2,65.5v1.3h-1.9
	v-1.3H56.2z M55.2,65.3v-1h1v1H55.2z M46,62.3h1.7l0.3,1.6h-0.7v-0.7c0-0.3-0.2-0.5-0.4-0.5s-0.4,0.1-0.4,0.5v0.7h-0.7
	C45.8,63.9,46,62.3,46,62.3z M45.8,61.5h2.1l-0.2,0.7H46L45.8,61.5z M47.8,64.3v0.3H46v-0.3H47.8z M46.6,63.2c0-0.3,0.2-0.4,0.3-0.4
	s0.3,0.1,0.3,0.4v0.7h-0.6V63.2z M46,64.8h1.9v0.5H46V64.8z M49.6,62.3h1.7l0.3,1.6h-0.7v-0.7c0-0.3-0.2-0.5-0.4-0.5
	s-0.4,0.1-0.4,0.5v0.7h-0.7C49.4,63.9,49.6,62.3,49.6,62.3z M49.4,61.5h2.1l-0.2,0.7h-1.7C49.6,62.2,49.4,61.5,49.4,61.5z
	 M53.2,62.3h1.7l0.3,1.6h-0.7v-0.7c0-0.3-0.2-0.5-0.4-0.5s-0.4,0.1-0.4,0.5v0.7H53C53,63.9,53.2,62.3,53.2,62.3z M53,61.5h2.1
	l-0.2,0.7h-1.7C53.2,62.2,53,61.5,53,61.5z M55,64.3v0.3h-1.9v-0.3C53.1,64.3,55,64.3,55,64.3z M53.7,63.2c0-0.3,0.2-0.4,0.3-0.4
	s0.3,0.1,0.3,0.4v0.7h-0.6V63.2z M53.1,64.8H55v0.5h-1.9V64.8z M54.2,65.5v1.3h-1.9v-1.3H54.2z M54.1,66.9L53.6,68h-1.4l0.2-1.2
	L54.1,66.9L54.1,66.9z M54.2,75.6v-1h1.3l0.2,1H54.2z M55.7,75.8l0.2,1h-0.8v-1H55.7z M45.3,75.6l0.2-1h1.4v1
	C46.9,75.6,45.3,75.6,45.3,75.6z M45.9,75.8v1h-0.8l0.1-1H45.9z M51.4,68.4v1.1h-1.8v-1.1H51.4z M50.6,66.9h1.5L52,68h-1.4
	C50.6,68,50.6,66.9,50.6,66.9z M52.2,69.7V71h-0.5c0-0.7-0.6-1.2-1.2-1.2c-0.7,0-1.2,0.5-1.2,1.2h-0.5v-1.3H52.2z M53.2,72.1v-1h1v1
	H53.2z M53.7,72.3v1h-1.9v-1H53.7z M53.7,70.9h-1.3v-1.3h1.3V70.9z M53,71.1v1h-1.3v-1C51.7,71.1,53,71.1,53,71.1z M51.5,74.4h-2V71
	c0-0.6,0.5-1,1-1c0.6,0,1,0.5,1,1C51.5,71,51.5,74.4,51.5,74.4z M49.3,71.1v1H48v-1C48,71.1,49.3,71.1,49.3,71.1z M47.3,72.3h2v1h-2
	V72.3z M46.8,72.1v-1h1v1H46.8z M48.6,70.9h-1.4v-1.3h1.4V70.9z M47.7,69.5h-1.5l0.2-1.1h1.3V69.5z M47.1,69.7V71H46l0.2-1.3
	L47.1,69.7L47.1,69.7z M46.6,71.1v1h-0.8l0.1-1H46.6z M47.2,72.3v1h-1.5l0.2-1H47.2z M46.3,73.4v1h-0.8l0.1-1H46.3z M46.5,74.4v-1
	H48v1H46.5L46.5,74.4z M47,74.6h1.5v1H47L47,74.6L47,74.6z M48.1,74.4v-1h1.2v1H48.1z M48.7,74.6h3.5v1h-3.6L48.7,74.6L48.7,74.6z
	 M51.8,74.4v-1h1.1v1H51.8z M52.4,74.6H54v1h-1.6L52.4,74.6L52.4,74.6z M53,74.4v-1h1.5v1H53L53,74.4z M54.7,74.4v-1h0.6l0.2,1H54.7
	z M53.8,73.2v-1h1.4l0.2,1C55.4,73.2,53.8,73.2,53.8,73.2z M54.4,72.1v-1H55l0.2,1H54.4z M53.9,70.9v-1.3h0.9l0.2,1.3
	C55,70.9,53.9,70.9,53.9,70.9z M53.3,69.5v-1.1h1.3l0.2,1.1H53.3z M53.1,68.4v1.1h-1.6v-1.1H53.1z M50.6,66.7v-1.3h1.6v1.3H50.6z
	 M51.4,64.3v0.3h-1.9v-0.3H51.4z M50.2,63.2c0-0.3,0.2-0.4,0.3-0.4s0.3,0.1,0.3,0.4v0.7h-0.6V63.2z M49.6,64.8h1.9v0.5h-1.8v-0.5
	H49.6z M50.4,68H49l-0.1-1.2h1.5L50.4,68L50.4,68z M49.4,68.4v1.1h-1.6v-1.1H49.4z M47.1,68l-0.4-1.2h2l0.1,1.2
	C48.8,68,47.1,68,47.1,68z M47,68h-0.7l-1.4-1.2h1.7L47,68L47,68z M45.1,76.9h1.7v0.9h-1.9L45.1,76.9z M46.1,76.7v-1h1.6v1H46.1z
	 M47,76.9h1.7v0.9H47L47,76.9L47,76.9z M47.8,76.7v-1h1.9v1H47.8z M48.8,76.9h1.6v0.9h-1.6V76.9z M49.9,76.7v-1h1.3v1H49.9z
	 M50.6,76.9h1.6v0.9h-1.6V76.9z M51.3,76.7v-1h1.9v1H51.3z M52.3,76.9H54v0.9h-1.7L52.3,76.9L52.3,76.9z M53.3,76.7v-1h1.6v1H53.3z
	 M54.2,76.9h1.7l0.1,0.9h-1.8V76.9z M54.7,68h-0.9l0.6-1.2h1.8L54.7,68L54.7,68z M53,64.3v1h-1.4v-1H53z M50.4,65.5v1.3h-1.6v-1.3
	H50.4z M49.4,65.3H48v-1h1.4V65.3z M48.7,65.5v1.3h-2v-1.3H48.7z M45.8,64.3v1h-1v-1H45.8z M46.5,65.5v1.3h-1.7v-1.3H46.5z
	 M56.1,78.1l0.8,0.8H44l0.8-0.8H56.1z M57,79.1l0.8,0.8H42.9l0.9-0.8H57z M52.5,83.8v-1h1.6v1H52.5z M53.2,84v1h-0.7v-1H53.2z
	 M52.5,82.7v-1h0.7v1H52.5z M53.4,82.7v-1h1.8v1H53.4z M54.3,81.5v-1.4h1.9v1.4H54.3z M54.3,82.8h2v1h-2V82.8z M55.4,82.7v-1h1.9v1
	H55.4z M45.4,81.7v1h-1.9v-1H45.4z M44.6,81.5v-1.4h1.9v1.4H44.6z M44.5,82.8h2v1h-2V82.8z M45.6,82.7v-1h1.8v1H45.6z M44.5,80.1
	v1.4h-1.7v-1.4H44.5z M43.4,81.7v1h-0.6v-1H43.4z M44.4,82.8v1h-1.6v-1H44.4z M43.4,84v1h-0.6v-1H43.4z M44.4,85.1V86h-1.6v-0.8
	L44.4,85.1L44.4,85.1z M43.6,85v-1h1.8v1H43.6z M44.5,85.1h2V86h-2V85.1z M45.6,85v-1h1.8v1H45.6z M46.7,85.1h1.6V86h-1.6V85.1z
	 M47.6,85v-1h0.7v1H47.6z M46.7,83.8v-1h1.6v1H46.7z M47.6,82.7v-1h0.7v1H47.6z M52.5,85.1h1.6V86h-1.6V85.1z M53.4,85v-1h1.8v1
	H53.4z M54.3,85.1h2V86h-2V85.1z M55.4,85v-1h1.8v1H55.4z M56.5,85.1h1.6V86h-1.6V85.1z M57.4,85v-1H58v1H57.4z M56.5,83.8v-1h1.6v1
	H56.5z M57.5,82.7v-1h0.6v1H57.5z M57.4,81.5h-1v-1.4H58v1.4C58,81.5,57.4,81.5,57.4,81.5z M61.2,22.1h5.6v13.4h-5.6L61.2,22.1
	L61.2,22.1z M49.6,22.1h5.5v13.4h-5.5V22.1L49.6,22.1z M38,22.1h5.5v13.4H38L38,22.1L38,22.1z M38,35.9h34.7V57H38L38,35.9L38,35.9z
	 M37.5,105.8l-0.6-0.4C24.3,98.2,15,90.4,9.3,82.5l11.3-6L37.4,86v19.8L37.5,105.8z M37.5,77.4l-16.8-9.5L5.4,76
	c-1.8-3.8-2.7-7.6-2.7-11.3v-7.1h34.8L37.5,77.4L37.5,77.4z"/>
<path class="st0" d="M30.5,65.9c-0.4-0.1-0.7-0.3-0.7-0.6v-0.1c-0.1-0.3-0.1-0.5-0.5-0.6h-0.1v0.1c0.3,0.1,0.4,0.2,0.4,0.5v0.1
	C29.8,65.6,30,65.9,30.5,65.9c0.4,0.2,0.7,0.6,0.7,0.6v-0.1C31.3,66.5,31,66,30.5,65.9z M31.2,62.3c0,0,0.1-0.3,0.4-0.4
	c-0.4-0.2-0.5-0.2-1.1-0.1C30.8,61.8,30.9,62,31.2,62.3z M28.9,66.2C28.9,66.1,28.9,66.1,28.9,66.2C28.8,66.1,28.8,66.1,28.9,66.2
	C28.8,66.1,28.8,66.1,28.9,66.2c-0.1,0.4,0,0.6,0,0.6v-0.1C28.9,66.7,28.8,66.5,28.9,66.2z M30,66.2c0.2,0.3,0.3,0.6,0.3,0.6v-0.1
	C30.3,66.8,30.3,66.4,30,66.2z M29.2,65.9C29.1,65.9,29.1,65.9,29.2,65.9c-0.2,0.3,0,0.6,0.1,0.7v-0.1
	C29.3,66.5,29.2,66.2,29.2,65.9z M26,67.3c-0.2-0.1-0.2-0.1-0.4-0.4h-0.1V67C25.7,67.2,25.8,67.3,26,67.3c0,0.1,0,0.1,0.1,0.1v-0.1
	H26z M30.4,66.2C30.4,66.3,30.4,66.3,30.4,66.2c0.3,0.2,0.4,0.4,0.5,0.5v0.1v-0.2C30.9,66.5,30.8,66.4,30.4,66.2z M28.5,66.1
	C28.5,66.1,28.5,66.2,28.5,66.1c-0.1,0.4-0.1,0.7-0.1,0.7v-0.1C28.6,66.8,28.5,66.5,28.5,66.1C28.6,66.2,28.6,66.2,28.5,66.1z
	 M28.2,66.2C28.1,66.2,28.1,66.3,28.2,66.2c-0.1,0.3-0.1,0.7-0.1,0.7v-0.1C28.2,66.9,28.2,66.6,28.2,66.2
	C28.2,66.3,28.2,66.2,28.2,66.2z M26.4,67.1c-0.1,0-0.2-0.1-0.3-0.3H26v0.1C26.1,67.1,26.3,67.2,26.4,67.1L26.4,67.1
	C26.5,67.2,26.5,67.2,26.4,67.1C26.5,67.2,26.5,67.2,26.4,67.1C26.5,67.2,26.5,67.1,26.4,67.1z M27.5,66.4
	C27.4,66.4,27.4,66.4,27.5,66.4C27.4,66.4,27.4,66.4,27.5,66.4c-0.1,0.2-0.1,0.5,0,0.5V66.4z M26.5,66.7
	C26.5,66.7,26.4,66.7,26.5,66.7c-0.1,0.2,0,0.2,0.1,0.3v-0.1C26.6,66.9,26.5,66.8,26.5,66.7z"/>
<path class="st0" d="M21.9,66.6c0.7,0.3,1.1,0.5,1.5,0.5c0.2,0,0.4-0.1,0.7-0.2c0.2-0.1,0.4-0.2,0.5-0.3c0,0.1,0,0.5,0.3,0.6H25
	c0.1,0,0.2,0,0.3,0.2c0.3,0.3,0.6,0.5,0.9,0.5s0.5-0.2,0.7-0.3c0,0,0.1,0,0.1-0.1c0.2-0.2,0.4-0.2,0.6-0.1c0.3,0.1,0.9,0,1.2-0.1
	c0.4-0.2,0.7-0.2,1,0c0.3,0.1,1.1,0.3,2.8,0.1c0.1,0.1,0.3,0.3,0.7,0.4h0.1v-0.1c0,0-0.1-0.1,0-0.5c0.3,0.2,0.9,0.4,1.7,0.1
	c0,0,0.1,0,0.1-0.1v-0.1c-0.1-0.1-0.2-0.2-0.4-0.3l-0.2-0.2c0.3,0,0.5,0,0.6-0.1h0.1c0.2-0.1,0.6-0.3,1.1-1.4V65h-0.1
	c0,0-0.2,0.1-0.5,0.2c0.3-0.2,0.6-0.6,0.8-1.3v-0.1h-0.1c-0.1,0.1-0.2,0.1-0.4,0.2c0.2-0.2,0.4-0.5,0.5-0.9V63h-0.1
	c-0.1,0.1-0.4,0.2-0.8,0.3c0.2-0.2,0.4-0.4,0.7-0.8v-0.1h-0.1c0,0-0.3,0.2-0.7,0.1c0.5-0.6,0.6-1.2,0.4-2.7c0,0,0-0.1-0.1-0.1
	c0,0-0.1,0-0.1,0.1c-0.3,1.2-1.3,1.4-1.4,1.4h-0.1c0.1-0.1,0.2-0.2,0.3-0.4c0.2-0.4,0.4-1.1-0.1-2.2c0,0,0-0.1-0.1-0.1h-0.1
	c-0.1,0.2-0.3,0.3-0.3,0.4c-0.2,0.3-0.3,0.5-0.9,0.6c-0.6,0.2-1.1,0.6-1.3,1.1c-0.2-0.1-0.3-0.1-0.6-0.1c-0.4,0-0.8,0.2-1.2,0.5
	c-0.5-0.2-1.1-0.2-1.4,0.3c-0.2,0.2-0.2,0.2-0.4,0.1c-0.1,0-0.1-0.1-0.2-0.1c-0.3-0.1-1-0.4-1.7,0.1c0,0-0.1,0.1,0,0.1
	s0.1,0.1,0.1,0.1c0.3,0,0.5,0,0.6,0.1s0.1,0.1,0.1,0.2s0,0.2-0.1,0.2c-0.1,0.1-0.2,0.1-0.3,0.1h-0.6c-0.1,0-0.1,0-0.2-0.1
	s-0.3-0.2-0.7-0.2c-0.3,0-0.5,0.1-0.7,0.3c0,0-0.1,0.4-0.5,0.6c-0.1,0.1-0.2,0.2-0.3,0.4c-0.1,0.3,0,0.7,0.1,0.8
	c0.1,0.2,0.4,0.3,0.7,0.3h0.2c0,0.1,0.2,0.3,0.4,0.5h-0.2c-0.2,0-0.3,0.1-0.5,0.2s-0.4,0.2-1.1-0.1c-0.3-0.1-0.6-0.1-1.3,0.3
	c-0.3,0.2-0.4,0.4-0.4,0.7C21.4,66.3,21.6,66.5,21.9,66.6z M34.9,62.3L34.9,62.3c0,0.1,0,0.2,0.1,0.2c0.3,0.1,0.5,0,0.7,0
	c-0.4,0.6-0.8,0.7-1.2,0.8c-0.1,0-0.1,0.1-0.1,0.1c0,0.1,0.1,0.1,0.1,0.1c0.7-0.1,1.2-0.2,1.5-0.3c-0.3,0.5-0.5,0.7-0.8,0.9
	c-0.2,0-1,0.1-1.6,0c0.2-0.2,0.7-0.8,1-1.4v-0.1h-0.1c0,0-0.2,0.1-0.5,0.1h0.1c0.4-0.3,1-0.6,1.5-1.6C35.4,61.6,35.3,61.9,34.9,62.3
	z M34.1,60.5c-0.2,0.4-0.6,0.6-0.6,0.6h-0.4c0.2-0.2,0.5-0.5,0.7-0.8h-0.5c0.2-0.1,0.6-0.3,0.9-0.8C34.3,59.9,34.3,60.2,34.1,60.5z
	 M25.8,62.4h0.6c0.1,0,0.3,0,0.4-0.1s0.2-0.2,0.2-0.4s0-0.3-0.1-0.4c-0.1-0.1-0.2-0.1-0.3-0.1c0.4-0.1,0.8,0,1.1,0.1
	c0.1,0,0.2,0.1,0.2,0.1c0.2,0.1,0.4,0.2,0.6-0.2c0.3-0.3,0.7-0.4,1.1-0.3l-0.1,0.1v0.1h0.1c0.4-0.5,0.8-0.7,1.2-0.7
	c0.2,0,0.4,0.1,0.6,0.2c0.1,0.1,0.2,0.2,0.3,0.2c0,0,0.1,0.1,0.1,0c0,0,0.1-0.1,0-0.1c-0.1-0.1-0.1-0.2-0.3-0.2
	c0.1-0.4,0.6-0.9,1.1-1c0.6-0.2,0.7-0.3,1-0.7c0.1-0.1,0.1-0.2,0.2-0.3c0.1,0.2,0.1,0.4,0.2,0.6c-0.4,0.6-0.8,0.7-1,0.9
	c-0.1,0-0.1,0-0.1,0.1v0.1h0.6c-0.2,0.3-0.6,0.7-0.8,0.8c-0.6,0.1-0.9,0.4-0.9,1.3c0,0.1,0,0.1,0.1,0.1c0.1,0,0.1,0,0.1-0.1
	c0-0.9,0.4-1.1,1.1-1.2h0.2l0.6-0.1c0,0,0.9-0.2,1.4-1.1v0.6c-0.5,1.2-1.1,1.5-1.6,1.8c-0.1,0-0.1,0.1-0.2,0.1v0.1
	c0.3,0,0.5,0,0.6-0.1c-0.4,0.6-1,1.3-1,1.3c0.3,0.1,0.7,0.1,1,0.1h0.8c0,0,0.1,0.1,0.1,0c0.3-0.1,0.6-0.2,0.7-0.3
	c-0.4,0.9-0.9,1-1.1,1.1l-0.1,0.1c0,0.1,0.1,0.1,0.1,0.1c0.4,0,0.7-0.1,1-0.2c-0.2,0.4-0.4,0.6-0.5,0.8c-1.1-0.1-2-0.7-2.3-0.9h-0.1
	v0.1c0.3,0.2,1.2,0.8,2.3,0.9c-0.1,0.1-0.2,0.1-0.3,0.2c0,0-0.1,0-0.1,0.1c-0.1,0.1-0.7,0.1-1-0.1h-0.1V66c0.3,0.2,0.6,0.4,0.7,0.6
	l0.2,0.2c-0.1,0-0.3,0.1-0.4,0.1c-0.9-0.5-1.4-1.1-1.4-1.2h-0.1v0.1c0,0,0.5,0.6,1.3,1.1c-0.4,0-0.6-0.2-0.8-0.3h-0.1
	c0,0-0.1,0-0.1,0.1v0.6c-0.2-0.1-0.3-0.2-0.4-0.3v-0.1C32.2,66.6,32,66,32,66h-0.1v0.1c0,0,0.1,0.5,0.3,0.8c-1.6,0.2-2.5,0-2.7-0.1
	c-0.3-0.1-0.6-0.2-1.1,0c-0.2,0.1-0.8,0.2-1,0.1c-0.3-0.1-0.6,0-0.8,0.2c0,0-0.1,0-0.1,0.1c-0.3,0.2-0.6,0.5-1.2-0.1
	c0-0.1-0.1-0.1-0.3-0.1h-0.1c-0.1,0-0.1-0.3-0.1-0.4h0.3c0.3,0,0.8-0.1,1-0.1c0.2-0.1,0.4-0.2,0.5-0.4c0.1-0.3,0.6-0.4,0.6-0.4h0.3
	c0.2,0.1,0.4,0.1,0.5,0.1s0.3,0,0.4-0.1c0,0,0.1,0,0.1-0.1c0.1-0.1,0.1-0.1,0.5-0.1c0,0,0.1,0,0.1-0.1v-0.1C29,65.1,28.8,65,28.7,65
	c-0.1-0.1-0.2-0.3-0.2-0.5c0,0-0.1,0.1-0.2,0.3h-0.1c0-0.1,0-0.3-0.2-0.6h-0.1c0,0.1,0,0.3-0.3,0.6h-0.2c0.1-0.1,0.3-0.3,0.3-0.6
	c0.1-0.4,0-0.7-0.2-0.9S27,63,26.6,62.9V63c0.2,0.2,0.3,0.4,0.3,0.7c0,0.4-0.4,0.6-0.5,0.6s-0.1,0.1-0.2,0.2
	c-0.1-0.1-0.1-0.2-0.2-0.3c0.2-0.1,0.3-0.3,0.3-0.6s-0.1-0.6-0.4-0.7c-0.3-0.2-0.3-0.3-0.4-0.4c0-0.1,0-0.1-0.1-0.2l-0.1-0.1
	C25.6,62.3,25.7,62.3,25.8,62.4L25.8,62.4z M25.7,66.3c-0.3-0.3-0.2-0.8-0.1-0.9l0.1,0.1c0.2,0.2,0.3,0.5,0.7,0.6
	c-0.1,0.1-0.2,0.2-0.3,0.2C26.1,66.3,25.7,66.3,25.7,66.3z M25.4,64.3c0.1,0.1,0.3,0.1,0.5,0c0.1,0.1,0.1,0.2,0.2,0.3
	c-0.1,0.1-0.2,0.3-0.2,0.7C25.8,65.1,25.5,64.8,25.4,64.3z M25.5,64.9l-0.1-0.1C25.5,64.8,25.5,64.9,25.5,64.9z M26.2,64.6
	C26.2,64.6,26.2,64.7,26.2,64.6c0.1,0.1,0.1,0.2,0.1,0.2l0.1,0.1c0,0,0.1,0,0.1,0.1h1c0.2,0,0.4-0.1,0.6-0.1
	C28,65.1,28,65.3,28,65.5c-0.1,0-0.2,0-0.4-0.1h-0.4c-0.6-0.1-1-0.3-1.2-0.4C26,64.8,26.1,64.7,26.2,64.6z M26.4,64.6
	c0-0.1,0.1-0.1,0.2-0.2c0,0,0.5-0.3,0.5-0.7c0-0.2-0.1-0.4-0.2-0.6c0.3,0,0.5,0.2,0.7,0.3c0.2,0.2,0.2,0.5,0.1,0.9s-0.3,0.5-0.4,0.6
	C27,65.1,26.8,65,26.8,65c-0.1,0-0.1,0-0.1-0.1c-0.1,0-0.1,0-0.1-0.1C26.3,64.7,26.3,64.7,26.4,64.6z M27.7,64.8
	c0.2-0.2,0.2-0.4,0.2-0.5c0.1,0.2,0.1,0.4,0.1,0.4C27.9,64.8,27.8,64.8,27.7,64.8z M28.4,64.5c0.1,0.4,0.3,0.7,0.5,0.8
	c-0.3,0-0.4,0.1-0.5,0.2s-0.1,0.1-0.2,0.1C28.1,65.1,28.3,64.7,28.4,64.5z M23.7,64c-0.1-0.1-0.1-0.4-0.1-0.7c0-0.1,0.1-0.2,0.2-0.2
	c0.5-0.3,0.6-0.6,0.6-0.7c0.1-0.1,0.3-0.2,0.5-0.2s0.4,0.1,0.5,0.3c0,0,0,0.1,0.1,0.1c0.1,0.2,0.1,0.4,0.5,0.6
	c0.2,0.1,0.3,0.3,0.3,0.5s-0.1,0.3-0.2,0.4c-0.3,0.2-0.4,0.1-0.5,0.1c-0.4-0.2-0.6-0.1-1,0C24.1,64.3,23.8,64.1,23.7,64L23.7,64z
	 M24.9,64.2h0.4c0,0.1,0.1,0.3,0.1,0.4V65C25.2,64.9,25,64.6,24.9,64.2z M25.1,64.9c-0.1,0-0.1-0.1-0.1-0.1
	C25.1,64.8,25.1,64.8,25.1,64.9z M24.5,64.3c0.2-0.1,0.3-0.1,0.3-0.1c0,0.1,0,0.2,0.1,0.3v0.4C24.7,64.7,24.5,64.5,24.5,64.3z
	 M21.9,65.5c0.4-0.3,0.7-0.4,0.9-0.4H23c0.8,0.3,1,0.2,1.2,0.1c0.1-0.1,0.2-0.1,0.4-0.1h0.6l0.1,0.1c0.1,0,0.2,0,0.2,0.1
	c0.1,0.1,0.1,0.2,0.2,0.2c0.2,0.1,0.4,0.2,0.8,0.3c-0.2,0.1-0.4,0.2-0.4,0.4c-0.3-0.1-0.5-0.3-0.7-0.6c0-0.1-0.1-0.1-0.1-0.2
	c0,0-0.2,0.7,0.1,1.1c-0.2,0-0.4,0.1-0.5,0.1h-0.1c-0.2,0-0.4,0-0.9,0.3c-0.6,0.3-0.8,0.2-2-0.3c-0.2-0.1-0.4-0.3-0.4-0.5
	C21.6,65.8,21.7,65.6,21.9,65.5z"/>
<path class="st0" d="M29.1,63.5C29.1,63.5,29.2,63.5,29.1,63.5C29.2,63.5,29.2,63.5,29.1,63.5c0.1,0,0-0.2-0.3-0.3
	c0-0.1,0.1-0.3,0-0.5c0.1,0,0.2-0.1,0.2-0.1c0.2,0.1,0.5,0,0.7,0c-0.1,0.1-0.2,0.2-0.2,0.4c0,0.3,0.2,0.5,0.5,0.5h0.1
	c0.1,0.2,0.1,0.3,0.1,0.3v-0.1c0,0,0-0.1,0.1-0.1l0.1-0.1h0.5c-0.1-0.1-0.2-0.1-0.4-0.2v-0.4c0-0.1-0.1-0.1-0.2-0.2l-0.1-0.1h-0.1
	c-0.3,0.1-0.9,0.2-1.1,0.1h-0.1c-0.1,0.1-0.3,0.2-0.3,0.2c0.2,0.2,0,0.5,0,0.5C29,63.3,29.1,63.5,29.1,63.5z M30.3,62.6l0.2,0.2v0.3
	c-0.2-0.2-0.4-0.3-0.4-0.4c0,0.2,0,0.5,0.1,0.6h-0.1c-0.2,0-0.4-0.2-0.4-0.4s0.2-0.4,0.4-0.4C30.2,62.6,30.2,62.6,30.3,62.6z
	 M25.6,63.9h0.2c0.1,0,0.2-0.3,0.1-0.4c0-0.1,0-0.2-0.2-0.2h-0.2c-0.1,0.1-0.1,0.2-0.1,0.2s0,0.1,0.1,0.1c-0.1,0.1-0.1,0.1-0.2,0.1
	h-0.1v0.1C25.4,63.8,25.5,63.9,25.6,63.9z M25.7,63.6l-0.2-0.1c0,0,0-0.1,0.1-0.1h0.1c0.1,0,0.1,0.1,0.1,0.1s0,0.2-0.1,0.2h-0.2
	C25.6,63.7,25.7,63.7,25.7,63.6z M24.2,63.2C24.2,63.1,24.2,63.1,24.2,63.2c-0.1,0-0.3,0-0.4,0.2s0,0.4,0,0.5v-0.1
	c0,0,0-0.1,0.1-0.2c0,0.1,0.1,0.1,0.2,0.1c0,0,0.1,0,0.2-0.1v-0.2C24.4,63.2,24.3,63.2,24.2,63.2z M24.3,63.5l-0.1,0.1
	c0,0-0.1,0-0.1-0.1c-0.1,0-0.1,0.1-0.1,0.2v-0.2c0-0.1,0.2-0.1,0.2-0.1C24.3,63.3,24.3,63.3,24.3,63.5
	C24.4,63.4,24.4,63.5,24.3,63.5z M27,90.5c-0.4-0.1-0.7-0.3-0.7-0.6v-0.1c-0.1-0.3-0.1-0.5-0.5-0.6h-0.1v0.1
	c0.3,0.1,0.4,0.2,0.4,0.5v0.1C26.2,90.2,26.5,90.5,27,90.5c0.4,0.2,0.7,0.6,0.7,0.6V91C27.8,91.1,27.5,90.6,27,90.5z M27.7,86.9
	c0,0,0.1-0.3,0.4-0.4c-0.4-0.2-0.5-0.2-1.1-0.1C27.3,86.4,27.4,86.6,27.7,86.9z M25.4,90.8C25.4,90.7,25.3,90.7,25.4,90.8
	C25.3,90.7,25.3,90.7,25.4,90.8C25.3,90.7,25.3,90.7,25.4,90.8c-0.1,0.4,0,0.6,0,0.6v-0.1C25.4,91.3,25.3,91.1,25.4,90.8z
	 M26.5,90.8C26.4,90.8,26.4,90.9,26.5,90.8c0.2,0.3,0.3,0.6,0.3,0.6v-0.1C26.8,91.4,26.8,91,26.5,90.8z M25.7,90.6
	C25.7,90.5,25.7,90.5,25.7,90.6C25.6,90.5,25.6,90.5,25.7,90.6c-0.2,0.3,0,0.6,0.1,0.7v-0.1C25.8,91.1,25.6,90.9,25.7,90.6z
	 M22.5,91.9c-0.2-0.1-0.2-0.1-0.4-0.4H22v0.1C22.2,91.8,22.3,91.9,22.5,91.9c0,0.1,0,0.1,0.1,0.1v-0.1H22.5z M26.9,90.8
	C26.8,90.9,26.8,90.9,26.9,90.8c0.3,0.2,0.4,0.4,0.5,0.5v0.1v-0.2C27.4,91.2,27.3,91,26.9,90.8z M25,90.8c-0.1,0.4-0.1,0.7-0.1,0.7
	v-0.1C25.1,91.4,25,91.1,25,90.8C25.1,90.8,25,90.8,25,90.8z M24.7,90.9C24.6,90.9,24.6,90.9,24.7,90.9c-0.1,0.3-0.1,0.7-0.1,0.7
	v-0.1C24.7,91.5,24.7,91.2,24.7,90.9z M22.9,91.8c-0.1,0-0.2-0.1-0.3-0.3h-0.1v0.1C22.6,91.7,22.8,91.8,22.9,91.8L22.9,91.8
	L22.9,91.8C23,91.8,23,91.8,22.9,91.8z M24,91C23.9,91,23.9,91,24,91C23.9,91,23.9,91,24,91c-0.1,0.2-0.1,0.5,0,0.5v-0.1
	C24,91.6,23.9,91.2,24,91z M23,91.3C22.9,91.3,22.9,91.3,23,91.3c-0.1,0.2,0,0.2,0.1,0.3v-0.1C23.1,91.5,23,91.4,23,91.3z"/>
<path class="st0" d="M20.2,87.5c-0.1,0.1-0.2,0.2-0.3,0.4c-0.1,0.3,0,0.7,0.1,0.8c0.1,0.2,0.4,0.3,0.7,0.3h0.2
	c0,0.1,0.2,0.3,0.4,0.5h-0.2c-0.2,0-0.3,0.1-0.5,0.2s-0.4,0.2-1.1-0.1c-0.3-0.1-0.6-0.1-1.3,0.3c-0.3,0.2-0.4,0.4-0.4,0.7
	c0,0.3,0.2,0.5,0.5,0.6c0.7,0.3,1.1,0.5,1.5,0.5c0.2,0,0.4-0.1,0.7-0.2c0.2-0.1,0.4-0.2,0.5-0.3c0,0.1,0,0.5,0.3,0.6h0.1
	c0.1,0,0.2,0,0.3,0.2c0.3,0.3,0.6,0.5,0.9,0.5s0.5-0.2,0.7-0.3c0,0,0.1,0,0.1-0.1c0.2-0.2,0.4-0.2,0.6-0.1c0.3,0.1,0.9,0,1.2-0.1
	c0.4-0.2,0.7-0.2,1,0c0.3,0.1,1.1,0.3,2.8,0.1c0.1,0.1,0.3,0.3,0.7,0.4h0.1v-0.1c0,0-0.1-0.1,0-0.5c0.3,0.2,0.9,0.4,1.7,0.1
	c0,0,0.1,0,0.1-0.1v-0.1c-0.1-0.1-0.2-0.2-0.4-0.3L31,91.2c0.3,0,0.5,0,0.6-0.1h0.1c0.2-0.1,0.6-0.3,1.1-1.4v-0.1h-0.1
	c0,0-0.2,0.1-0.5,0.2c0.3-0.2,0.6-0.6,0.8-1.3v-0.1h-0.1c-0.1,0.1-0.2,0.1-0.4,0.2c0.2-0.2,0.4-0.5,0.5-0.9v-0.1h-0.1
	c-0.1,0.1-0.4,0.2-0.8,0.3c0.2-0.2,0.4-0.4,0.7-0.8V87h-0.1c0,0-0.3,0.2-0.7,0.1c0.5-0.6,0.6-1.2,0.4-2.7c0,0,0-0.1-0.1-0.1
	c0,0-0.1,0-0.1,0.1c-0.3,1.2-1.3,1.4-1.4,1.4h-0.1c0.1-0.1,0.2-0.2,0.3-0.4c0.2-0.4,0.4-1.1-0.1-2.2c0,0,0-0.1-0.1-0.1h-0.1
	c-0.1,0.2-0.3,0.3-0.3,0.4c-0.2,0.3-0.3,0.5-0.9,0.6c-0.6,0.2-1.1,0.6-1.3,1.1c-0.2-0.1-0.3-0.1-0.6-0.1c-0.4,0-0.8,0.2-1.2,0.5
	c-0.5-0.2-1.1-0.2-1.4,0.3c-0.2,0.2-0.2,0.2-0.4,0.1c-0.1,0-0.1-0.1-0.2-0.1c-0.3-0.1-1-0.4-1.7,0.1c0,0-0.1,0.1,0,0.1
	s0.1,0.1,0.1,0.1c0.3,0,0.5,0,0.6,0.1s0.1,0.1,0.1,0.2s0,0.2-0.1,0.2c-0.1,0.1-0.2,0.1-0.3,0.1h-0.6c-0.1,0-0.1,0-0.2-0.1
	s-0.3-0.2-0.7-0.2c-0.3,0-0.5,0.1-0.7,0.3C20.7,86.9,20.7,87.3,20.2,87.5z M21,89c0.2-0.1,0.3-0.1,0.3-0.1c0,0.1,0,0.2,0.1,0.3v0.4
	C21.1,89.3,21,89.1,21,89z M21.4,88.8h0.4c0,0.1,0.1,0.3,0.1,0.4v0.4C21.7,89.5,21.5,89.2,21.4,88.8z M21.6,89.5
	C21.6,89.5,21.5,89.5,21.6,89.5c-0.1,0-0.1-0.1-0.1-0.1S21.6,89.4,21.6,89.5z M20.5,91.3c-0.6,0.3-0.8,0.2-2-0.3
	c-0.2-0.1-0.4-0.3-0.4-0.5s0.1-0.4,0.3-0.5c0.4-0.3,0.7-0.4,0.9-0.4h0.2c0.8,0.3,1,0.2,1.2,0.1c0.1-0.1,0.2-0.1,0.4-0.1h0.6l0.1,0.1
	c0.1,0,0.2,0,0.2,0.1c0.1,0.1,0.1,0.2,0.2,0.2c0.2,0.1,0.4,0.2,0.8,0.3c-0.2,0.1-0.4,0.2-0.4,0.4c-0.3-0.1-0.5-0.3-0.7-0.6
	c0-0.1-0.1-0.1-0.1-0.2c0,0-0.2,0.7,0.1,1.1c-0.2,0-0.4,0.1-0.5,0.1h-0.1C21.2,91,21,91,20.5,91.3z M22.9,89.6c0,0,0.1,0,0.1,0.1h1
	c0.2,0,0.4-0.1,0.6-0.1c-0.1,0.2-0.1,0.4-0.1,0.6c-0.1,0-0.2,0-0.4-0.1h-0.4c-0.6-0.1-1-0.3-1.2-0.4c0-0.3,0.1-0.4,0.1-0.5l0.1,0.1
	v0.1C22.7,89.4,22.9,89.6,22.9,89.6z M22.8,89.2c0-0.1,0.1-0.1,0.2-0.2c0,0,0.5-0.3,0.5-0.7c0-0.2-0.1-0.4-0.2-0.6
	c0.3,0,0.5,0.2,0.7,0.3c0.2,0.2,0.2,0.5,0.1,0.9s-0.3,0.5-0.4,0.6c-0.3,0.2-0.5,0.1-0.5,0.1c-0.1,0-0.1,0-0.1-0.1
	c-0.1,0-0.1,0-0.1-0.1C22.8,89.3,22.8,89.3,22.8,89.2L22.8,89.2z M24.2,89.4c0.2-0.2,0.2-0.4,0.2-0.5c0.1,0.2,0.1,0.4,0.1,0.4
	C24.4,89.4,24.3,89.4,24.2,89.4z M24.9,89.2c0.1,0.4,0.3,0.7,0.5,0.8c-0.3,0-0.4,0.1-0.5,0.2s-0.1,0.1-0.2,0.1
	C24.6,89.7,24.8,89.3,24.9,89.2z M22.4,89.9c-0.2-0.1-0.4-0.5-0.5-0.9c0.1,0.1,0.3,0.1,0.5,0c0.1,0.1,0.1,0.2,0.2,0.3
	C22.5,89.3,22.4,89.5,22.4,89.9z M22,89.5L22,89.5L22,89.5z M22.8,90.7c-0.1,0.1-0.2,0.2-0.3,0.2c-0.1,0-0.2,0-0.3,0.1
	c-0.3-0.4-0.2-0.8-0.2-1l0.1,0.1C22.3,90.3,22.5,90.5,22.8,90.7z M31.4,86.9L31.4,86.9c0,0.1,0,0.2,0.1,0.2c0.3,0.1,0.5,0,0.7,0
	c-0.4,0.6-0.8,0.7-1.2,0.8c-0.1,0-0.1,0.1-0.1,0.1c0,0.1,0.1,0.1,0.1,0.1c0.7-0.1,1.2-0.2,1.5-0.3c-0.3,0.5-0.5,0.7-0.8,0.9
	c-0.2,0-1,0.1-1.6,0c0.2-0.2,0.7-0.8,1-1.4v-0.1H31c0,0-0.2,0.1-0.5,0.1h0.1c0.4-0.3,1-0.6,1.5-1.6C31.9,86.2,31.7,86.6,31.4,86.9z
	 M30.6,85.1c-0.2,0.4-0.6,0.6-0.6,0.6h-0.4c0.2-0.2,0.5-0.5,0.7-0.8h-0.5c0.2-0.1,0.6-0.3,0.9-0.8C30.8,84.5,30.7,84.9,30.6,85.1z
	 M22.2,87h0.6c0.1,0,0.3,0,0.4-0.1s0.2-0.2,0.2-0.4s0-0.3-0.1-0.4c0,0-0.1-0.1-0.3-0.1c0.4-0.1,0.8,0,1.1,0.1c0.1,0,0.2,0.1,0.2,0.1
	c0.2,0.1,0.4,0.2,0.6-0.2c0.3-0.3,0.7-0.4,1.1-0.3l-0.1,0.1v0.1H26c0.4-0.5,0.8-0.7,1.2-0.7c0.2,0,0.4,0.1,0.6,0.2
	c0.1,0.1,0.2,0.2,0.3,0.2c0,0,0.1,0.1,0.1,0c0,0,0.1-0.1,0-0.1c-0.1-0.1-0.1-0.2-0.3-0.2c0.1-0.4,0.6-0.9,1.1-1
	c0.6-0.2,0.7-0.3,1-0.7c0.1-0.1,0.1-0.2,0.2-0.3c0.1,0.2,0.1,0.4,0.2,0.6c-0.4,0.6-0.8,0.7-1,0.9c-0.1,0-0.1,0-0.1,0.1V85h0.6
	c-0.2,0.3-0.6,0.7-0.8,0.8c-0.6,0.1-0.9,0.4-0.9,1.3c0,0.1,0,0.1,0.1,0.1s0.1,0,0.1-0.1c0-0.9,0.4-1.1,1.1-1.2h0.2l0.6-0.1
	c0,0,0.9-0.2,1.4-1.1v0.6c-0.5,1.2-1.1,1.5-1.6,1.8c-0.1,0-0.1,0.1-0.2,0.1v0.1c0.3,0,0.5,0,0.6-0.1c-0.4,0.6-1,1.3-1,1.3
	c0.3,0.1,0.7,0.1,1,0.1h0.8c0,0,0.1,0.1,0.1,0c0.3-0.1,0.6-0.2,0.7-0.3c-0.4,0.9-0.9,1-1.1,1.1l-0.1,0.1c0,0.1,0.1,0.1,0.1,0.1
	c0.4,0,0.7-0.1,1-0.2c-0.2,0.4-0.4,0.6-0.5,0.8c-1.1-0.1-2-0.7-2.3-0.9h-0.1v0.1c0.3,0.2,1.2,0.8,2.3,0.9c-0.1,0.1-0.2,0.1-0.3,0.2
	c0,0-0.1,0-0.1,0.1c-0.1,0.1-0.7,0.1-1-0.1h-0.1v0.1c0.3,0.2,0.6,0.4,0.7,0.6l0.2,0.2c-0.1,0-0.3,0.1-0.4,0.1
	C29.5,91,29,90.4,29,90.3h-0.1v0.1c0,0,0.5,0.6,1.3,1.1c-0.4,0-0.6-0.2-0.8-0.3h-0.1c0,0-0.1,0-0.1,0.1v0.6
	c-0.2-0.1-0.3-0.2-0.4-0.3v-0.1c-0.2-0.3-0.4-0.9-0.4-0.9h-0.1v0.1c0,0,0.1,0.5,0.3,0.8c-1.6,0.2-2.5,0-2.7-0.1
	c-0.3-0.1-0.6-0.2-1.1,0c-0.2,0.1-0.8,0.2-1,0.1c-0.3-0.1-0.6,0-0.8,0.2c0,0-0.1,0-0.1,0.1c-0.3,0.2-0.6,0.5-1.2-0.1
	c-0.2-0.2-0.3-0.2-0.5-0.2h-0.1c-0.1,0-0.1-0.3-0.1-0.4h0.3c0.3,0,0.8-0.1,1-0.1c0.2-0.1,0.4-0.2,0.5-0.4c0.1-0.3,0.6-0.4,0.6-0.4
	h0.3c0.2,0.1,0.4,0.1,0.5,0.1s0.3,0,0.4-0.1c0,0,0.1,0,0.1-0.1c0.1-0.1,0.1-0.1,0.5-0.1c0,0,0.1,0,0.1-0.1v-0.1
	c-0.1-0.2-0.3-0.3-0.4-0.3c0.2-0.1,0.1-0.2,0.1-0.5c0,0-0.1,0.1-0.2,0.3h-0.1c0-0.1,0-0.3-0.2-0.6h-0.1c0,0.1,0,0.3-0.3,0.6h-0.2
	c0.1-0.1,0.3-0.3,0.3-0.6c0.1-0.4,0-0.7-0.2-0.9c-0.2-0.2-0.5-0.3-0.9-0.4v0.1c0.2,0.2,0.3,0.4,0.3,0.7c0,0.4-0.4,0.6-0.5,0.6
	s-0.1,0.1-0.2,0.2c-0.1-0.1-0.1-0.2-0.2-0.3c0.2-0.1,0.3-0.3,0.3-0.6s-0.1-0.6-0.4-0.7c-0.3-0.2-0.3-0.3-0.4-0.4
	c0-0.1,0-0.1-0.1-0.2l-0.1-0.1C22.1,86.9,22.2,87,22.2,87L22.2,87z M20.9,87c0.1-0.1,0.3-0.2,0.5-0.2s0.4,0.1,0.5,0.3
	c0,0,0,0.1,0.1,0.1c0.1,0.2,0.1,0.4,0.5,0.6c0.2,0.1,0.3,0.3,0.3,0.5s-0.1,0.3-0.2,0.4c-0.3,0.2-0.4,0.1-0.5,0.1
	c-0.4-0.2-0.6-0.1-1,0s-0.7,0-0.8-0.2c-0.1-0.1-0.1-0.4-0.1-0.7c0-0.1,0.1-0.2,0.2-0.2C20.8,87.4,20.9,87.1,20.9,87L20.9,87z"/>
<path class="st0" d="M25.6,88.1C25.7,88.1,25.7,88.1,25.6,88.1c0.1,0,0-0.2-0.3-0.3c0-0.1,0.1-0.3,0-0.5c0.1,0,0.2-0.1,0.2-0.1
	c0.2,0.1,0.5,0,0.7,0c-0.1,0.1-0.2,0.2-0.2,0.4c0,0.3,0.2,0.5,0.5,0.5h0.1c0.1,0.2,0.1,0.3,0.1,0.3v-0.1c0,0,0-0.1,0.1-0.1l0.1-0.1
	h0.5C27.3,88,27.2,88,27,87.9v-0.4c0-0.1-0.1-0.1-0.2-0.2l-0.1-0.1h-0.1c-0.3,0.1-0.9,0.2-1.1,0.1h-0.1c-0.1,0.1-0.3,0.2-0.3,0.2
	c0.2,0.2,0,0.5,0,0.5C25.5,87.9,25.6,88.1,25.6,88.1z M26.8,87.2l0.2,0.2v0.3c-0.2-0.2-0.4-0.3-0.4-0.4c0,0.2,0,0.5,0.1,0.6h-0.1
	c-0.2,0-0.4-0.2-0.4-0.4s0.2-0.4,0.4-0.4C26.7,87.2,26.7,87.2,26.8,87.2z M22.1,88.5h0.2c0.1,0,0.2-0.3,0.1-0.4c0-0.1,0-0.2-0.2-0.2
	H22c-0.1,0.1-0.1,0.2-0.1,0.2s0,0.1,0.1,0.1c-0.1,0.1-0.1,0.1-0.2,0.1h-0.1v0.1C21.9,88.4,22,88.5,22.1,88.5z M22.2,88.3
	C22.2,88.2,22.2,88.2,22.2,88.3C22.2,88.2,22.2,88.2,22.2,88.3C22,88.2,22,88.1,22,88.1s0-0.1,0.1-0.1h0.1c0.1,0,0.1,0.1,0.1,0.1
	S22.3,88.3,22.2,88.3H22C22.1,88.4,22.2,88.3,22.2,88.3z M20.4,88.4C20.4,88.4,20.5,88.4,20.4,88.4C20.5,88.4,20.5,88.3,20.4,88.4
	c0.1-0.1,0.1-0.2,0.1-0.2c0,0.1,0.1,0.1,0.2,0.1c0,0,0.1,0,0.2-0.1V88c0-0.2-0.1-0.2-0.2-0.2s-0.3,0-0.4,0.2
	C20.3,88.1,20.4,88.3,20.4,88.4z M20.5,88c0-0.1,0.2-0.1,0.2-0.1s0.1,0,0.1,0.1v0.1l-0.1,0.1c0,0-0.1,0-0.1-0.1
	c-0.1,0-0.1,0.1-0.1,0.2C20.4,88.1,20.4,88,20.5,88z M17.3,51.5C17.3,51.5,17.3,51.6,17.3,51.5c0.1,0.1,0.1,0,0.1,0
	S17.4,51.4,17.3,51.5C17.3,51.4,17.3,51.5,17.3,51.5z M21.5,51.3c-0.1,0.1-0.1,0.3-0.1,0.4v-0.1C21.4,51.6,21.5,51.5,21.5,51.3
	c0.2-0.1,0.4-0.2,0.5-0.2c0,0,0.1,0,0.1-0.1s0-0.1-0.1-0.1C21.8,51.1,21.6,51.2,21.5,51.3z"/>
<path class="st0" d="M23.1,52.8c0.2-0.3,0.2-0.7,0-1.2c0-0.1-0.1-0.1-0.1-0.2c0.3-0.1,0.4-0.1,0.8-0.1h0.1v-0.1
	c-0.2-0.4-0.5-0.6-1-0.6c0-0.4-0.1-0.6-0.5-1h-0.1l-0.1,0.1c0.1,0.5,0,0.7-0.2,1c-0.3-0.2-0.5-0.3-0.7-0.5c0.2-0.1,0.3-0.3,0.4-0.4
	c0.3-0.3,0.4-0.6,0.3-0.8s-0.3-0.3-0.7-0.3c-0.7-0.1-1.4,0.2-1.9,0.7c-0.6-0.2-0.8-0.6-0.9-1.7c0,0,0-0.1-0.1-0.1h-0.1
	c-0.6,0.6-0.6,1-0.5,1.4c-0.4,0.1-0.6,0.5-0.8,1v0.1h0.1c0.4-0.2,1.1-0.2,1.4-0.1c0,0,0.1,0.1,0.2,0.1c-0.1,0.1-0.2,0.3-0.2,0.4
	c-0.1,0.3-0.2,0.5-0.3,0.7C17.9,51,17.6,51,17.1,51c-0.3,0-0.5,0.1-0.6,0.2c-0.1,0.1-0.1,0.4,0,0.6c0.1,0.2,0.4,0.7,1.2,1.1V53
	c-0.2,0.3-0.7,0.7-0.9,0.7l-0.1,0.1c0,0,0,0.1,0.1,0.1c0.5,0.2,1,0.1,1.2,0c0.2,0.4,0.6,0.6,0.9,0.7H19v-0.1
	c-0.2-0.5-0.3-0.8-0.2-1.2c0.2,0,0.4,0.1,0.6,0.1c0.6,0,1-0.2,1.2-0.3c0.1,0,0.1,0,0.1-0.1c0.2-0.1,0.7-0.5,0.8-0.6
	c0.2,0.2,0.5,0.3,0.7,0.4c0.1,0.1,0.3,0.1,0.4,0.1C22.8,53,23,52.9,23.1,52.8z M22.5,50c0.2,0.3,0.2,0.5,0.2,0.7
	c0,0.1,0,0.1,0.1,0.1c0.3,0,0.6,0.1,0.8,0.4c-0.3,0-0.5,0-0.8,0.1l-0.1-0.1L22.5,51l-0.1-0.1c-0.1-0.1-0.2-0.1-0.2-0.2
	C22.4,50.5,22.5,50.3,22.5,50z M18.6,49.9c-0.2-0.1-0.8-0.1-1.3,0c0.2-0.5,0.4-0.6,0.6-0.7c0,0.1,0.1,0.2,0.1,0.2
	c0,0.1,0.1,0.1,0.1,0.1c0.1,0,0.1-0.1,0.1-0.1v-0.3c-0.1-0.4-0.1-0.7,0.3-1.1c0.1,0.9,0.3,1.3,0.9,1.6c-0.1,0.2-0.3,0.3-0.4,0.5
	C18.8,50,18.7,49.9,18.6,49.9z M18.7,50.7c0.3-0.7,0.8-1.2,1.3-1.5c0.1,0.4,0.1,0.5,0.4,0.7v-0.1c-0.3-0.2-0.3-0.3-0.4-0.7
	c0.4-0.2,0.8-0.3,1.2-0.2c0.3,0,0.5,0.1,0.6,0.2c-0.3,0-0.5,0.1-0.6,0.2v0.1c0.1-0.1,0.3-0.2,0.5-0.2c0,0.1-0.1,0.3-0.3,0.5
	c-0.4,0.5-1.3,1.1-1.9,1.6c-0.2,0.1-0.4,0.3-0.5,0.6c0,0-0.1,0-0.1-0.1c-0.1-0.1-0.2-0.1-0.3-0.2c-0.1-0.1-0.2-0.1-0.3-0.2
	C18.5,51.2,18.6,51,18.7,50.7z M20.1,51.2l0.2,0.2c0.1,0.1,0.2,0.2,0.3,0.4c-0.7,0.3-0.9,0.3-1.3,0.1c0.1-0.2,0.3-0.4,0.5-0.5
	C19.9,51.3,20,51.3,20.1,51.2z M18.1,53.9c0-0.1-0.1-0.3-0.1-0.3l-0.1-0.1l-0.1,0.1c0,0.1,0,0.1,0.1,0.2c-0.2,0-0.5,0.1-0.8,0
	c0.2-0.2,0.6-0.4,0.7-0.7V53c0.2,0.1,0.4,0.2,0.6,0.2h0.1c-0.1,0.4,0,0.7,0.1,1.1C18.4,54.4,18.2,54.2,18.1,53.9z M20.6,52.9
	c0,0-0.1,0-0.1,0.1c-0.3,0.2-0.9,0.4-2,0.2c-1.3-0.3-1.8-1.1-1.8-1.3v-0.3c0.3,0,0.4,0.1,0.5,0.3v-0.1c-0.1-0.2-0.3-0.3-0.5-0.3
	c0.1-0.1,0.2-0.2,0.5-0.2h0.1c0.4,0,0.7,0.1,1,0.3c0,0.3,0,0.5-0.3,0.6v0.1c0.2-0.1,0.4-0.2,0.4-0.7c0.1,0,0.2,0.1,0.3,0.2
	c0.1,0.1,0.2,0.1,0.3,0.2c0.1,0,0.1,0.1,0.2,0.1c0.6,0.3,0.8,0.3,1.7-0.1c0.1,0.1,0.1,0.1,0.3,0.2l0.1,0.1c0.1,0,0.1,0.1,0.2,0.1
	C21.2,52.6,20.8,52.8,20.6,52.9z M22.3,52.7c-0.4-0.1-0.7-0.4-1-0.6l-0.2-0.2L21,51.8l-0.1-0.1l-0.4-0.4c-0.1-0.1-0.1-0.2-0.2-0.2
	c0.3-0.2,0.6-0.5,0.9-0.7c0.4,0.2,0.8,0.5,1,0.7h0.1c0.3,0.2,0.5,0.4,0.6,0.6c0.2,0.4,0.2,0.8,0,1l-0.1-0.1
	c-0.2-0.2-0.4-0.4-0.6-0.5h-0.1v0.1c0.2,0.1,0.4,0.2,0.6,0.5l0.1,0.1C22.7,52.8,22.5,52.8,22.3,52.7z"/>
<path class="st0" d="M21.2,49.1C21.2,49.1,21.1,49,21.2,49.1c-0.1-0.1-0.1,0-0.1,0C21,49.1,21.1,49.2,21.2,49.1
	C21.1,49.2,21.2,49.1,21.2,49.1z M22.6,51.9C22.6,51.9,22.5,51.8,22.6,51.9c-0.1-0.1-0.1,0-0.1,0C22.4,51.9,22.5,52,22.6,51.9
	C22.5,52,22.6,51.9,22.6,51.9z M9.3,14.9V2.8L6.9,3l0.4-1.6l4-0.4v13.9H9.3z M29.1,11.2v3.7h-2v-3.7h-5.5l-0.3-1.5l6.5-8.5h1.3v8.5
	h1.6v1.6h-1.6V11.2z M27.1,4.6c-0.4,0.6-0.8,1.2-1.2,1.7l-2.5,3.3h3.8V6.3C27.2,5.8,27.2,5.2,27.1,4.6z M43.3,15.4l-1.9-0.9
	C44,13.1,46,11.4,47,8.9c-0.5,0.5-1.2,0.9-2.2,0.9c-2.6,0-4.4-2-4.4-4.4c0-2.6,1.9-4.5,4.6-4.5c2.5,0,4.7,1.7,4.7,5
	C49.7,9.5,47,13.5,43.3,15.4z M45,2.7c-1.4,0-2.5,1.1-2.5,2.7c0,1.5,1.1,2.7,2.6,2.7c1.1,0,2.3-0.5,2.7-2V5.4
	C47.7,4,46.4,2.7,45,2.7z M63,15.2c-1.1,0-2-0.2-2.6-0.5l-0.2-1.9c0.9,0.5,1.8,0.8,2.7,0.8c1.6,0,2.9-1,2.9-2.7
	c0-1.8-1.4-2.8-2.9-2.8c-1,0-1.7,0.1-2.4,0.4l0.2-7.1h6l-0.4,1.7h-3.8l-0.1,3.3H63c2.6,0,4.7,1.7,4.7,4.6
	C67.8,13.1,66.1,15.2,63,15.2z"/>
</svg>
