<?xml version="1.0" encoding="utf-8"?>
<!-- Generator: Adobe Illustrator 23.0.1, SVG Export Plug-In . SVG Version: 6.00 Build 0)  -->
<svg version="1.1" id="Layer_1" xmlns="http://www.w3.org/2000/svg" xmlns:xlink="http://www.w3.org/1999/xlink" x="0px" y="0px"
	 viewBox="0 0 193.9 72" style="enable-background:new 0 0 193.9 72;" xml:space="preserve">
<style type="text/css">
	.st0{fill:#3A3A3A;}
</style>
<path class="st0" d="M193.9,72H0V0h193.9V72z M27.9,61.1V58H17.3V37h-3.7v24.1L27.9,61.1L27.9,61.1z M45.6,61.1V58H35v-7.4h7.8v-3.1
	H35v-7.3h9.3V37h-13v24.1C31.3,61.1,45.6,61.1,45.6,61.1z M70.1,61.1L59.9,36.7h-1.3L48.3,61.1h3.6l2.6-6.2h9.4l2.6,6.2H70.1z
	 M62.6,52h-6.9l2.4-5.9c0.3-0.8,0.8-1.9,1-2.9h0.1c0.3,1,0.7,2.2,1,2.9L62.6,52z M92.3,61.1L84.1,50c2.3-0.9,4.2-3,4.2-6.2
	c0-4.6-3.8-6.8-7.2-6.8h-7.2v24.1h3.6V50.5h2.8l7.6,10.6L92.3,61.1L92.3,61.1z M84.6,43.9c0,2.5-2,3.7-4.2,3.7h-3v-7.3h3
	C82.6,40.2,84.6,41.4,84.6,43.9z M116.7,61.6V37H113v11.4c0,1.7,0,3.8,0.1,5.7l-0.1,0c-1.5-1.8-3.7-4.2-5.1-5.8L97.7,37h-2.5v24.1
	h3.7V49c0-1.8,0-3.8-0.1-6l0.1,0c1.7,2,3.7,4.4,5.6,6.3l11.3,12.3C115.6,61.6,116.7,61.6,116.7,61.6z M126.6,61.1V37H123v24.1
	L126.6,61.1L126.6,61.1z M154.4,61.6V37h-3.7v11.4c0,1.7,0,3.8,0.1,5.7l-0.1,0c-1.5-1.8-3.7-4.2-5.1-5.8L135.4,37h-2.5v24.1h3.7V49
	c0-1.8,0-3.8-0.1-6l0.1,0c1.7,2,3.7,4.4,5.6,6.3l11.3,12.3C153.3,61.6,154.4,61.6,154.4,61.6z M180.3,59V49h-9v2.9h5.6v5.3
	c-1.1,0.8-2.9,1.2-5.1,1.2c-4.9,0-9.7-3.1-9.7-9.3c0-6.3,5-9.4,9.7-9.4c2.5,0,4.9,0.8,6.7,1.9l0.7-3.2c-1.8-1.1-4.4-1.9-7.8-1.9
	c-6,0-13,4.2-13,12.5c0,8.2,6.7,12.5,13.2,12.5C175.1,61.6,178,60.8,180.3,59z M52.3,29.7V11.1H48v7c0,1.2,0.1,2.3,0.1,3.4l-0.1,0
	C47.2,20.4,45.9,19,45,18l-6.3-6.9H35v18.4h4.3v-7.9c0-1.2,0-2.6-0.1-3.9l0.1,0c1,1.2,2.3,2.7,3.5,4l7.2,7.9L52.3,29.7L52.3,29.7z
	 M63.5,23.1v-3.2h-7.6v3.2L63.5,23.1L63.5,23.1z M83.2,20.3c0-5.8-4.6-9.2-9.9-9.2h-6.2v18.4h6.2C78.6,29.5,83.2,26,83.2,20.3z
	 M78.7,20.3c0,3.7-2.6,5.5-5.8,5.5h-1.4V14.7h1.4C76.1,14.7,78.7,16.6,78.7,20.3z M97.7,29.5v-3.7h-7.1v-3.7h5.1v-3.8h-5.1v-3.6h6.2
	v-3.7H86.2v18.4L97.7,29.5L97.7,29.5z M121.8,29.5l-1.6-18.4h-3.5l-4,7.7c-0.6,1.2-1.3,2.7-1.8,3.9h0c-0.5-1.2-1.3-2.8-1.8-3.9
	l-4-7.7h-3.7l-1.6,18.4h4.2l0.6-6.8c0.1-1,0.1-2.2,0.1-3.4h0.1c0.5,1.2,1,2.4,1.6,3.4l3.5,6.8h1.8l3.5-6.8c0.5-1,1.1-2.3,1.6-3.5
	h0.1c0,1.2,0.1,2.4,0.2,3.4l0.6,6.8L121.8,29.5L121.8,29.5z M141.4,29.5l-7.2-18.6H131l-7.2,18.6h4.2l1.5-4.2h5.9l1.5,4.2H141.4z
	 M134.2,21.8h-3.6l1.2-3.4c0.2-0.5,0.4-1.1,0.5-1.7h0.1c0.1,0.6,0.4,1.2,0.6,1.7L134.2,21.8z M160.8,29.7V11.1h-4.3v7
	c0,1.2,0.1,2.3,0.1,3.4l-0.1,0c-0.8-1.1-2.2-2.5-3.1-3.5l-6.4-6.9h-3.6v18.4h4.3v-7.9c0-1.2,0-2.6-0.1-3.9l0.1,0
	c1,1.2,2.3,2.7,3.5,4l7.2,7.9L160.8,29.7L160.8,29.7z M180.8,20.3c0-5.8-4.6-9.2-9.9-9.2h-6.2v18.4h6.2
	C176.3,29.5,180.8,26,180.8,20.3z M176.3,20.3c0,3.7-2.6,5.5-5.8,5.5h-1.4V14.7h1.4C173.7,14.7,176.3,16.6,176.3,20.3z M25.8,11.3
	v4.9c1,1,1.6,2.4,1.6,4.1c0,3.4-2.6,5.7-5.4,5.7c-2.8,0-5.4-2.2-5.4-5.7c0-1.7,0.6-3.1,1.6-4.1v-4.9c-3.5,1.4-6.1,4.6-6.1,8.9
	c0,6,4.9,9.7,9.9,9.7c5.1,0,9.9-3.8,9.9-9.7C32,15.8,29.3,12.6,25.8,11.3z M24.2,8.8h-4.3v8.7h4.3V8.8z"/>
</svg>
