<?xml version="1.0" encoding="utf-8"?>
<!-- Generator: Adobe Illustrator 23.0.1, SVG Export Plug-In . SVG Version: 6.00 Build 0)  -->
<svg version="1.1" id="Layer_1" xmlns="http://www.w3.org/2000/svg" xmlns:xlink="http://www.w3.org/1999/xlink" x="0px" y="0px"
	 viewBox="0 0 193.91 72.03" style="enable-background:new 0 0 193.91 72.03;" xml:space="preserve">
<style type="text/css">
	.st0{fill:#FFFFFF;}
</style>
<path class="st0" d="M193.91,72.03H0V0h193.91V72.03z M27.86,61.11v-3.13h-10.6V37.03H13.6v24.07H27.86z M45.62,61.11v-3.13H34.98
	v-7.4h7.81v-3.13h-7.81v-7.28h9.32v-3.13H31.32v24.07H45.62z M70.12,61.11L59.86,36.69h-1.32L48.27,61.11h3.58l2.6-6.23h9.36
	l2.6,6.23H70.12z M62.57,51.98h-6.87l2.38-5.89c0.34-0.79,0.75-1.92,1.02-2.94h0.08c0.3,1.02,0.68,2.15,1.02,2.94L62.57,51.98z
	 M92.34,61.11l-8.23-11.13c2.34-0.94,4.23-2.98,4.23-6.19c0-4.57-3.85-6.75-7.24-6.75h-7.24v24.07h3.62V50.54h2.75l7.58,10.56H92.34
	z M84.61,43.86c0,2.53-2,3.66-4.15,3.66h-2.98V40.2h2.98C82.61,40.2,84.61,41.37,84.61,43.86z M116.7,61.63v-24.6h-3.66v11.39
	c0,1.74,0,3.81,0.08,5.66l-0.08,0.04c-1.47-1.81-3.66-4.23-5.06-5.77L97.65,37.03h-2.53v24.07h3.66V49.03c0-1.81,0-3.85-0.08-6.04
	l0.08-0.04c1.66,1.96,3.74,4.38,5.55,6.34l11.28,12.34H116.7z M126.64,61.11V37.03h-3.66v24.07H126.64z M154.44,61.63v-24.6h-3.66
	v11.39c0,1.74,0,3.81,0.08,5.66l-0.08,0.04c-1.47-1.81-3.66-4.23-5.06-5.77l-10.34-11.32h-2.53v24.07h3.66V49.03
	c0-1.81,0-3.85-0.08-6.04l0.08-0.04c1.66,1.96,3.74,4.38,5.55,6.34l11.28,12.34H154.44z M180.3,58.96v-10h-9.02v2.94h5.55v5.32
	c-1.13,0.79-2.87,1.25-5.09,1.25c-4.91,0-9.73-3.06-9.73-9.28c0-6.3,4.98-9.39,9.7-9.39c2.53,0,4.9,0.79,6.68,1.92l0.68-3.24
	c-1.77-1.13-4.45-1.92-7.77-1.92c-6,0-12.98,4.19-12.98,12.53c0,8.15,6.72,12.49,13.21,12.49C175.1,61.56,178,60.8,180.3,58.96z
	 M52.33,29.69V11.07h-4.33v6.96c0,1.16,0.06,2.31,0.12,3.44l-0.06,0.03c-0.84-1.1-2.17-2.54-3.06-3.52l-6.35-6.9h-3.61v18.42h4.3
	v-7.85c0-1.18-0.03-2.57-0.09-3.87l0.06-0.03c1.01,1.24,2.31,2.74,3.49,4.04l7.25,7.91H52.33z M63.49,23.14V19.9h-7.57v3.23H63.49z
	 M83.16,20.28c0-5.75-4.59-9.21-9.87-9.21h-6.21v18.42h6.21C78.6,29.49,83.16,26,83.16,20.28z M78.65,20.31
	c0,3.7-2.63,5.54-5.8,5.54h-1.44V14.74h1.44C76.05,14.74,78.65,16.61,78.65,20.31z M97.66,29.49v-3.67h-7.05v-3.7h5.08v-3.75h-5.08
	v-3.64h6.18v-3.67H86.22v18.42H97.66z M121.84,29.49l-1.62-18.42h-3.46l-3.98,7.74c-0.61,1.21-1.33,2.71-1.79,3.93h-0.03
	c-0.49-1.21-1.27-2.8-1.85-3.93l-4.01-7.74h-3.7l-1.59,18.42h4.16l0.58-6.79c0.09-0.98,0.14-2.19,0.14-3.38h0.06
	c0.46,1.18,1.01,2.4,1.56,3.44l3.52,6.79h1.79l3.47-6.79c0.52-1.04,1.13-2.31,1.56-3.46h0.06c0,1.18,0.09,2.4,0.17,3.41l0.61,6.79
	H121.84z M141.35,29.49l-7.25-18.57h-3.09l-7.25,18.57h4.22l1.53-4.16h5.86l1.53,4.16H141.35z M134.24,21.84h-3.61l1.24-3.41
	c0.17-0.46,0.38-1.1,0.52-1.7h0.06c0.14,0.61,0.38,1.21,0.55,1.7L134.24,21.84z M160.83,29.69V11.07h-4.33v6.96
	c0,1.16,0.06,2.31,0.12,3.44l-0.06,0.03c-0.84-1.1-2.17-2.54-3.06-3.52l-6.35-6.9h-3.61v18.42h4.3v-7.85c0-1.18-0.03-2.57-0.09-3.87
	l0.06-0.03c1.01,1.24,2.31,2.74,3.49,4.04l7.25,7.91H160.83z M180.84,20.28c0-5.75-4.59-9.21-9.87-9.21h-6.21v18.42h6.21
	C176.28,29.49,180.84,26,180.84,20.28z M176.34,20.31c0,3.7-2.63,5.54-5.8,5.54h-1.44V14.74h1.44
	C173.74,14.74,176.34,16.61,176.34,20.31z M25.79,11.3v4.9c0.98,0.99,1.63,2.4,1.63,4.1c0,3.44-2.63,5.69-5.37,5.69
	c-2.77,0-5.37-2.25-5.37-5.69c0-1.68,0.63-3.08,1.59-4.07v-4.92c-3.48,1.35-6.15,4.55-6.15,8.93c0,5.95,4.85,9.67,9.93,9.67
	c5.11,0,9.9-3.75,9.9-9.67C31.95,15.83,29.26,12.64,25.79,11.3z M24.19,8.81h-4.33v8.68h4.33V8.81z"/>
</svg>
