<?xml version="1.0" encoding="utf-8"?>
<!-- Generator: Adobe Illustrator 25.2.1, SVG Export Plug-In . SVG Version: 6.00 Build 0)  -->
<svg version="1.1" id="Layer_1" xmlns="http://www.w3.org/2000/svg" xmlns:xlink="http://www.w3.org/1999/xlink" x="0px" y="0px"
	 viewBox="0 0 150 105" style="enable-background:new 0 0 150 105;" xml:space="preserve">
<style type="text/css">
	.st0{fill:none;stroke:#FFFFFF;stroke-width:0.927;stroke-linecap:round;stroke-linejoin:round;stroke-miterlimit:10;}
	.st1{fill:#FFFFFF;}
	.st2{fill:none;stroke:#FFFFFF;stroke-width:4.0287;stroke-linecap:round;stroke-linejoin:round;stroke-miterlimit:10;}
</style>
<g>
	<path class="st1" d="M18.45,64.52c1.35,0,2.62-0.53,3.57-1.48l7.23-7.22c-0.21-0.33-0.41-0.68-0.58-1.05l-7.46,7.46
		c-0.7,0.7-1.71,1.11-2.76,1.11s-2.05-0.4-2.76-1.11c-0.73-0.73-1.14-1.71-1.14-2.76c0-1.04,0.4-2.02,1.14-2.76l10.46-10.46
		l-0.81-0.81L14.88,55.91c-1.97,1.97-1.97,5.17,0,7.14C15.83,64,17.1,64.52,18.45,64.52z"/>
	<path class="st1" d="M19.33,59.17c0-0.32-0.26-0.57-0.57-0.57c-0.32,0-0.57,0.26-0.57,0.57c0,0.32,0.26,0.57,0.57,0.57
		C19.07,59.75,19.33,59.49,19.33,59.17z"/>
	<path class="st1" d="M42.27,64.01c0.34,0.34,0.78,0.52,1.25,0.52c0.47,0,0.92-0.18,1.24-0.52l5.07-5.07
		c0.68-0.69,0.68-1.82-0.01-2.5l-9.28-9.28c-1.01-1.01-2.35-1.56-3.78-1.56c-1.06,0-2.08,0.31-2.94,0.89l-0.42,0.28l-0.36-0.36
		l-6.37-6.37l-0.18-0.18V39.6v-5.16l-8.87-6.65l-4.01,4.01l6.65,8.87h5.16h0.26l0.18,0.18l6.37,6.37l0.36,0.36L32.31,48
		c-1.4,2.11-1.11,4.94,0.68,6.73L42.27,64.01z M25.33,35.32v3.44v0.14v0.62h-0.62h-3.58h-0.31l-0.19-0.25l-5.2-6.93l-0.32-0.43
		l0.38-0.38l1.84-1.84l0.38-0.38l0.43,0.32l6.93,5.2l0.25,0.19V35.32z M33.8,47.98c0.79-0.79,1.85-1.23,2.96-1.23
		c1.13,0,2.18,0.44,2.97,1.23l9.28,9.27l0.44,0.44l-0.44,0.44l-5.06,5.06l-0.44,0.44l-0.44-0.44l-9.28-9.28
		c-0.79-0.79-1.23-1.85-1.23-2.96C32.57,49.82,33.01,48.76,33.8,47.98z"/>
	<path class="st1" d="M42.26,27.91c-0.85-0.21-1.73-0.32-2.6-0.32c-2.81,0-5.47,1.11-7.49,3.12c-0.85,0.85-1.52,1.86-2.06,2.98
		c-0.87,1.8-0.79,3.88-0.79,3.88l0.96,0.96c-0.05-1.25,0.14-2.49,0.56-3.63c0.46-1.25,1.18-2.4,2.15-3.37
		c1.79-1.79,4.17-2.78,6.69-2.78c0.55,0,1.1,0.05,1.65,0.14l1.17,0.2l-0.84,0.84l-4.94,4.95l0.9,5.44l5.45,0.9L48,36.27l0.84-0.84
		l0.21,1.17c0.54,3.09-0.42,6.12-2.64,8.34c-0.49,0.49-1.05,0.93-1.66,1.31l0.83,0.83c0.61-0.4,1.15-0.84,1.63-1.33
		c2.67-2.67,3.72-6.44,2.8-10.1c-0.12-0.49-0.5-0.88-0.99-1.02c-0.12-0.03-0.25-0.05-0.38-0.05c-0.38,0-0.74,0.15-1.01,0.41
		l-4.76,4.76l-0.23,0.23l-0.31-0.05l-3.3-0.55l-0.43-0.07l-0.07-0.43l-0.55-3.3l-0.05-0.31l0.23-0.23l4.76-4.76
		c0.36-0.36,0.5-0.89,0.36-1.37C43.15,28.41,42.76,28.03,42.26,27.91z"/>
</g>
<g>
	<path class="st0" d="M115.5,97.77v-5.95h-4.65c-0.42-1.98-1.03-3.02-1.81-4.38l4.69-4.69l-7.01-7.01l-4.69,4.69
		c-1.36-0.78-2.83-1.39-4.38-1.81v-6.63h-9.92v6.63c-1.55,0.42-3.02,1.03-4.38,1.81l-4.69-4.69l-7.01,7.01l4.69,4.69
		c-0.78,1.36-1.39,2.4-1.81,4.38h-4.65v5.95"/>
	<path class="st0" d="M85.87,97.77c0-3.83,3.11-6.94,6.94-6.94c3.83,0,6.94,3.11,6.94,6.94"/>
	<path class="st0" d="M143.27,46.21h-5.95v4.65c-1.98,0.42-3.02,1.03-4.38,1.81l-4.69-4.69l-7.01,7.01l4.69,4.69
		c-0.78,1.36-1.39,2.4-1.81,4.38h-6.63v9.92h5.95c0.42,1.55,1.71,3.02,2.49,4.38l-4.69,4.69l7.01,7.01l4.69-4.69
		c1.36,0.78,2.4,1.39,4.38,1.81v4.65h5.95"/>
	<path class="st0" d="M143.27,75.84c-3.83,0-6.94-3.11-6.94-6.94c0-3.83,3.11-6.94,6.94-6.94"/>
	<rect x="61.96" y="22.41" class="st0" width="87.26" height="81.31"/>
	<line class="st0" x1="61.96" y1="34.31" x2="149.22" y2="34.31"/>
	<line class="st2" x1="67.91" y1="28.36" x2="67.91" y2="28.36"/>
	<line class="st2" x1="75.84" y1="28.36" x2="75.84" y2="28.36"/>
	<line class="st2" x1="83.77" y1="28.36" x2="83.77" y2="28.36"/>
</g>
<g>
	<polyline class="st0" points="0.93,65.15 0.93,0.59 88.18,0.59 88.18,17.2 	"/>
	<polyline class="st0" points="56.55,81.9 32.3,81.9 0.93,81.9 0.93,65.15 	"/>
	<line class="st0" x1="0.93" y1="12.49" x2="88.18" y2="12.49"/>
	<line class="st2" x1="6.88" y1="6.54" x2="6.88" y2="6.54"/>
	<line class="st2" x1="14.81" y1="6.54" x2="14.81" y2="6.54"/>
	<line class="st2" x1="22.74" y1="6.54" x2="22.74" y2="6.54"/>
</g>
</svg>
